<?xml version="1.0" encoding="utf-8" standalone="no"?>
<!DOCTYPE svg PUBLIC "-//W3C//DTD SVG 1.1//EN"
  "http://www.w3.org/Graphics/SVG/1.1/DTD/svg11.dtd">
<svg xmlns:xlink="http://www.w3.org/1999/xlink" width="624.890625pt" height="635.15625pt" viewBox="0 0 624.890625 635.15625" xmlns="http://www.w3.org/2000/svg" version="1.1">
 <metadata>
  <rdf:RDF xmlns:dc="http://purl.org/dc/elements/1.1/" xmlns:cc="http://creativecommons.org/ns#" xmlns:rdf="http://www.w3.org/1999/02/22-rdf-syntax-ns#">
   <cc:Work>
    <dc:type rdf:resource="http://purl.org/dc/dcmitype/StillImage"/>
    <dc:date>2023-07-16T16:09:37.020795</dc:date>
    <dc:format>image/svg+xml</dc:format>
    <dc:creator>
     <cc:Agent>
      <dc:title>Matplotlib v3.6.2, https://matplotlib.org/</dc:title>
     </cc:Agent>
    </dc:creator>
   </cc:Work>
  </rdf:RDF>
 </metadata>
 <defs>
  <style type="text/css">*{stroke-linejoin: round; stroke-linecap: butt}</style>
 </defs>
 <g id="figure_1">
  <g id="patch_1">
   <path d="M 0 635.15625 
L 624.890625 635.15625 
L 624.890625 0 
L 0 0 
z
" style="fill: #ffffff"/>
  </g>
  <g id="axes_1">
   <g id="patch_2">
    <path d="M 59.690625 289.6 
L 313.326989 289.6 
L 313.326989 43.2 
L 59.690625 43.2 
z
" style="fill: #ffffff"/>
   </g>
   <g id="patch_3">
    <path d="M 71.219551 289.6 
L 79.106542 289.6 
L 79.106542 289.6 
L 71.219551 289.6 
z
" clip-path="url(#pa0f8f0849f)" style="fill: #1f77b4; fill-opacity: 0.5"/>
   </g>
   <g id="patch_4">
    <path d="M 80.498364 289.6 
L 88.385355 289.6 
L 88.385355 289.6 
L 80.498364 289.6 
z
" clip-path="url(#pa0f8f0849f)" style="fill: #1f77b4; fill-opacity: 0.5"/>
   </g>
   <g id="patch_5">
    <path d="M 89.777177 289.6 
L 97.664169 289.6 
L 97.664169 289.6 
L 89.777177 289.6 
z
" clip-path="url(#pa0f8f0849f)" style="fill: #1f77b4; fill-opacity: 0.5"/>
   </g>
   <g id="patch_6">
    <path d="M 99.055991 289.6 
L 106.942982 289.6 
L 106.942982 289.6 
L 99.055991 289.6 
z
" clip-path="url(#pa0f8f0849f)" style="fill: #1f77b4; fill-opacity: 0.5"/>
   </g>
   <g id="patch_7">
    <path d="M 108.334804 289.6 
L 116.221795 289.6 
L 116.221795 289.6 
L 108.334804 289.6 
z
" clip-path="url(#pa0f8f0849f)" style="fill: #1f77b4; fill-opacity: 0.5"/>
   </g>
   <g id="patch_8">
    <path d="M 117.613618 289.6 
L 125.500609 289.6 
L 125.500609 289.6 
L 117.613618 289.6 
z
" clip-path="url(#pa0f8f0849f)" style="fill: #1f77b4; fill-opacity: 0.5"/>
   </g>
   <g id="patch_9">
    <path d="M 126.892431 289.6 
L 134.779422 289.6 
L 134.779422 289.596329 
L 126.892431 289.596329 
z
" clip-path="url(#pa0f8f0849f)" style="fill: #1f77b4; fill-opacity: 0.5"/>
   </g>
   <g id="patch_10">
    <path d="M 136.171244 289.6 
L 144.058236 289.6 
L 144.058236 289.577972 
L 136.171244 289.577972 
z
" clip-path="url(#pa0f8f0849f)" style="fill: #1f77b4; fill-opacity: 0.5"/>
   </g>
   <g id="patch_11">
    <path d="M 145.450058 289.6 
L 153.337049 289.6 
L 153.337049 289.537587 
L 145.450058 289.537587 
z
" clip-path="url(#pa0f8f0849f)" style="fill: #1f77b4; fill-opacity: 0.5"/>
   </g>
   <g id="patch_12">
    <path d="M 154.728871 289.6 
L 162.615862 289.6 
L 162.615862 289.346678 
L 154.728871 289.346678 
z
" clip-path="url(#pa0f8f0849f)" style="fill: #1f77b4; fill-opacity: 0.5"/>
   </g>
   <g id="patch_13">
    <path d="M 164.007684 289.6 
L 171.894676 289.6 
L 171.894676 289.012587 
L 164.007684 289.012587 
z
" clip-path="url(#pa0f8f0849f)" style="fill: #1f77b4; fill-opacity: 0.5"/>
   </g>
   <g id="patch_14">
    <path d="M 173.286498 289.6 
L 181.173489 289.6 
L 181.173489 286.640908 
L 173.286498 286.640908 
z
" clip-path="url(#pa0f8f0849f)" style="fill: #1f77b4; fill-opacity: 0.5"/>
   </g>
   <g id="patch_15">
    <path d="M 182.565311 289.6 
L 190.452303 289.6 
L 190.452303 279.4451 
L 182.565311 279.4451 
z
" clip-path="url(#pa0f8f0849f)" style="fill: #1f77b4; fill-opacity: 0.5"/>
   </g>
   <g id="patch_16">
    <path d="M 191.844125 289.6 
L 199.731116 289.6 
L 199.731116 255.258377 
L 191.844125 255.258377 
z
" clip-path="url(#pa0f8f0849f)" style="fill: #1f77b4; fill-opacity: 0.5"/>
   </g>
   <g id="patch_17">
    <path d="M 201.122938 289.6 
L 209.009929 289.6 
L 209.009929 186.652228 
L 201.122938 186.652228 
z
" clip-path="url(#pa0f8f0849f)" style="fill: #1f77b4; fill-opacity: 0.5"/>
   </g>
   <g id="patch_18">
    <path d="M 210.401751 289.6 
L 218.288743 289.6 
L 218.288743 78.891341 
L 210.401751 78.891341 
z
" clip-path="url(#pa0f8f0849f)" style="fill: #1f77b4; fill-opacity: 0.5"/>
   </g>
   <g id="patch_19">
    <path d="M 219.680565 289.6 
L 227.567556 289.6 
L 227.567556 99.560931 
L 219.680565 99.560931 
z
" clip-path="url(#pa0f8f0849f)" style="fill: #1f77b4; fill-opacity: 0.5"/>
   </g>
   <g id="patch_20">
    <path d="M 228.959378 289.6 
L 236.846369 289.6 
L 236.846369 211.6907 
L 228.959378 211.6907 
z
" clip-path="url(#pa0f8f0849f)" style="fill: #1f77b4; fill-opacity: 0.5"/>
   </g>
   <g id="patch_21">
    <path d="M 238.238191 289.6 
L 246.125183 289.6 
L 246.125183 273.071671 
L 238.238191 273.071671 
z
" clip-path="url(#pa0f8f0849f)" style="fill: #1f77b4; fill-opacity: 0.5"/>
   </g>
   <g id="patch_22">
    <path d="M 247.517005 289.6 
L 255.403996 289.6 
L 255.403996 286.640908 
L 247.517005 286.640908 
z
" clip-path="url(#pa0f8f0849f)" style="fill: #1f77b4; fill-opacity: 0.5"/>
   </g>
   <g id="patch_23">
    <path d="M 256.795818 289.6 
L 264.68281 289.6 
L 264.68281 289.005244 
L 256.795818 289.005244 
z
" clip-path="url(#pa0f8f0849f)" style="fill: #1f77b4; fill-opacity: 0.5"/>
   </g>
   <g id="patch_24">
    <path d="M 266.074632 289.6 
L 273.961623 289.6 
L 273.961623 289.471503 
L 266.074632 289.471503 
z
" clip-path="url(#pa0f8f0849f)" style="fill: #1f77b4; fill-opacity: 0.5"/>
   </g>
   <g id="patch_25">
    <path d="M 275.353445 289.6 
L 283.240436 289.6 
L 283.240436 289.588986 
L 275.353445 289.588986 
z
" clip-path="url(#pa0f8f0849f)" style="fill: #1f77b4; fill-opacity: 0.5"/>
   </g>
   <g id="patch_26">
    <path d="M 284.632258 289.6 
L 292.51925 289.6 
L 292.51925 289.6 
L 284.632258 289.6 
z
" clip-path="url(#pa0f8f0849f)" style="fill: #1f77b4; fill-opacity: 0.5"/>
   </g>
   <g id="patch_27">
    <path d="M 293.911072 289.6 
L 301.798063 289.6 
L 301.798063 289.596329 
L 293.911072 289.596329 
z
" clip-path="url(#pa0f8f0849f)" style="fill: #1f77b4; fill-opacity: 0.5"/>
   </g>
   <g id="matplotlib.axis_1">
    <g id="xtick_1">
     <g id="line2d_1">
      <defs>
       <path id="medb85f9946" d="M 0 0 
L 0 3.5 
" style="stroke: #000000; stroke-width: 0.8"/>
      </defs>
      <g>
       <use xlink:href="#medb85f9946" x="70.52364" y="289.6" style="stroke: #000000; stroke-width: 0.8"/>
      </g>
     </g>
     <g id="text_1">
      <!-- 0.0 -->
      <g transform="translate(62.572077 304.198437) scale(0.1 -0.1)">
       <defs>
        <path id="DejaVuSans-30" d="M 2034 4250 
Q 1547 4250 1301 3770 
Q 1056 3291 1056 2328 
Q 1056 1369 1301 889 
Q 1547 409 2034 409 
Q 2525 409 2770 889 
Q 3016 1369 3016 2328 
Q 3016 3291 2770 3770 
Q 2525 4250 2034 4250 
z
M 2034 4750 
Q 2819 4750 3233 4129 
Q 3647 3509 3647 2328 
Q 3647 1150 3233 529 
Q 2819 -91 2034 -91 
Q 1250 -91 836 529 
Q 422 1150 422 2328 
Q 422 3509 836 4129 
Q 1250 4750 2034 4750 
z
" transform="scale(0.015625)"/>
        <path id="DejaVuSans-2e" d="M 684 794 
L 1344 794 
L 1344 0 
L 684 0 
L 684 794 
z
" transform="scale(0.015625)"/>
       </defs>
       <use xlink:href="#DejaVuSans-30"/>
       <use xlink:href="#DejaVuSans-2e" x="63.623047"/>
       <use xlink:href="#DejaVuSans-30" x="95.410156"/>
      </g>
     </g>
    </g>
    <g id="xtick_2">
     <g id="line2d_2">
      <g>
       <use xlink:href="#medb85f9946" x="116.917706" y="289.6" style="stroke: #000000; stroke-width: 0.8"/>
      </g>
     </g>
     <g id="text_2">
      <!-- 0.2 -->
      <g transform="translate(108.966144 304.198437) scale(0.1 -0.1)">
       <defs>
        <path id="DejaVuSans-32" d="M 1228 531 
L 3431 531 
L 3431 0 
L 469 0 
L 469 531 
Q 828 903 1448 1529 
Q 2069 2156 2228 2338 
Q 2531 2678 2651 2914 
Q 2772 3150 2772 3378 
Q 2772 3750 2511 3984 
Q 2250 4219 1831 4219 
Q 1534 4219 1204 4116 
Q 875 4013 500 3803 
L 500 4441 
Q 881 4594 1212 4672 
Q 1544 4750 1819 4750 
Q 2544 4750 2975 4387 
Q 3406 4025 3406 3419 
Q 3406 3131 3298 2873 
Q 3191 2616 2906 2266 
Q 2828 2175 2409 1742 
Q 1991 1309 1228 531 
z
" transform="scale(0.015625)"/>
       </defs>
       <use xlink:href="#DejaVuSans-30"/>
       <use xlink:href="#DejaVuSans-2e" x="63.623047"/>
       <use xlink:href="#DejaVuSans-32" x="95.410156"/>
      </g>
     </g>
    </g>
    <g id="xtick_3">
     <g id="line2d_3">
      <g>
       <use xlink:href="#medb85f9946" x="163.311773" y="289.6" style="stroke: #000000; stroke-width: 0.8"/>
      </g>
     </g>
     <g id="text_3">
      <!-- 0.4 -->
      <g transform="translate(155.360211 304.198437) scale(0.1 -0.1)">
       <defs>
        <path id="DejaVuSans-34" d="M 2419 4116 
L 825 1625 
L 2419 1625 
L 2419 4116 
z
M 2253 4666 
L 3047 4666 
L 3047 1625 
L 3713 1625 
L 3713 1100 
L 3047 1100 
L 3047 0 
L 2419 0 
L 2419 1100 
L 313 1100 
L 313 1709 
L 2253 4666 
z
" transform="scale(0.015625)"/>
       </defs>
       <use xlink:href="#DejaVuSans-30"/>
       <use xlink:href="#DejaVuSans-2e" x="63.623047"/>
       <use xlink:href="#DejaVuSans-34" x="95.410156"/>
      </g>
     </g>
    </g>
    <g id="xtick_4">
     <g id="line2d_4">
      <g>
       <use xlink:href="#medb85f9946" x="209.70584" y="289.6" style="stroke: #000000; stroke-width: 0.8"/>
      </g>
     </g>
     <g id="text_4">
      <!-- 0.6 -->
      <g transform="translate(201.754278 304.198437) scale(0.1 -0.1)">
       <defs>
        <path id="DejaVuSans-36" d="M 2113 2584 
Q 1688 2584 1439 2293 
Q 1191 2003 1191 1497 
Q 1191 994 1439 701 
Q 1688 409 2113 409 
Q 2538 409 2786 701 
Q 3034 994 3034 1497 
Q 3034 2003 2786 2293 
Q 2538 2584 2113 2584 
z
M 3366 4563 
L 3366 3988 
Q 3128 4100 2886 4159 
Q 2644 4219 2406 4219 
Q 1781 4219 1451 3797 
Q 1122 3375 1075 2522 
Q 1259 2794 1537 2939 
Q 1816 3084 2150 3084 
Q 2853 3084 3261 2657 
Q 3669 2231 3669 1497 
Q 3669 778 3244 343 
Q 2819 -91 2113 -91 
Q 1303 -91 875 529 
Q 447 1150 447 2328 
Q 447 3434 972 4092 
Q 1497 4750 2381 4750 
Q 2619 4750 2861 4703 
Q 3103 4656 3366 4563 
z
" transform="scale(0.015625)"/>
       </defs>
       <use xlink:href="#DejaVuSans-30"/>
       <use xlink:href="#DejaVuSans-2e" x="63.623047"/>
       <use xlink:href="#DejaVuSans-36" x="95.410156"/>
      </g>
     </g>
    </g>
    <g id="xtick_5">
     <g id="line2d_5">
      <g>
       <use xlink:href="#medb85f9946" x="256.099907" y="289.6" style="stroke: #000000; stroke-width: 0.8"/>
      </g>
     </g>
     <g id="text_5">
      <!-- 0.8 -->
      <g transform="translate(248.148345 304.198437) scale(0.1 -0.1)">
       <defs>
        <path id="DejaVuSans-38" d="M 2034 2216 
Q 1584 2216 1326 1975 
Q 1069 1734 1069 1313 
Q 1069 891 1326 650 
Q 1584 409 2034 409 
Q 2484 409 2743 651 
Q 3003 894 3003 1313 
Q 3003 1734 2745 1975 
Q 2488 2216 2034 2216 
z
M 1403 2484 
Q 997 2584 770 2862 
Q 544 3141 544 3541 
Q 544 4100 942 4425 
Q 1341 4750 2034 4750 
Q 2731 4750 3128 4425 
Q 3525 4100 3525 3541 
Q 3525 3141 3298 2862 
Q 3072 2584 2669 2484 
Q 3125 2378 3379 2068 
Q 3634 1759 3634 1313 
Q 3634 634 3220 271 
Q 2806 -91 2034 -91 
Q 1263 -91 848 271 
Q 434 634 434 1313 
Q 434 1759 690 2068 
Q 947 2378 1403 2484 
z
M 1172 3481 
Q 1172 3119 1398 2916 
Q 1625 2713 2034 2713 
Q 2441 2713 2670 2916 
Q 2900 3119 2900 3481 
Q 2900 3844 2670 4047 
Q 2441 4250 2034 4250 
Q 1625 4250 1398 4047 
Q 1172 3844 1172 3481 
z
" transform="scale(0.015625)"/>
       </defs>
       <use xlink:href="#DejaVuSans-30"/>
       <use xlink:href="#DejaVuSans-2e" x="63.623047"/>
       <use xlink:href="#DejaVuSans-38" x="95.410156"/>
      </g>
     </g>
    </g>
    <g id="xtick_6">
     <g id="line2d_6">
      <g>
       <use xlink:href="#medb85f9946" x="302.493974" y="289.6" style="stroke: #000000; stroke-width: 0.8"/>
      </g>
     </g>
     <g id="text_6">
      <!-- 1.0 -->
      <g transform="translate(294.542412 304.198437) scale(0.1 -0.1)">
       <defs>
        <path id="DejaVuSans-31" d="M 794 531 
L 1825 531 
L 1825 4091 
L 703 3866 
L 703 4441 
L 1819 4666 
L 2450 4666 
L 2450 531 
L 3481 531 
L 3481 0 
L 794 0 
L 794 531 
z
" transform="scale(0.015625)"/>
       </defs>
       <use xlink:href="#DejaVuSans-31"/>
       <use xlink:href="#DejaVuSans-2e" x="63.623047"/>
       <use xlink:href="#DejaVuSans-30" x="95.410156"/>
      </g>
     </g>
    </g>
    <g id="text_7">
     <!-- V -->
     <g transform="translate(183.088494 317.876562) scale(0.1 -0.1)">
      <defs>
       <path id="DejaVuSans-56" d="M 1831 0 
L 50 4666 
L 709 4666 
L 2188 738 
L 3669 4666 
L 4325 4666 
L 2547 0 
L 1831 0 
z
" transform="scale(0.015625)"/>
      </defs>
      <use xlink:href="#DejaVuSans-56"/>
     </g>
    </g>
   </g>
   <g id="matplotlib.axis_2">
    <g id="ytick_1">
     <g id="line2d_7">
      <defs>
       <path id="m2c27f9324c" d="M 0 0 
L -3.5 0 
" style="stroke: #000000; stroke-width: 0.8"/>
      </defs>
      <g>
       <use xlink:href="#m2c27f9324c" x="59.690625" y="289.6" style="stroke: #000000; stroke-width: 0.8"/>
      </g>
     </g>
     <g id="text_8">
      <!-- 0 -->
      <g transform="translate(46.328125 293.399219) scale(0.1 -0.1)">
       <use xlink:href="#DejaVuSans-30"/>
      </g>
     </g>
    </g>
    <g id="ytick_2">
     <g id="line2d_8">
      <g>
       <use xlink:href="#m2c27f9324c" x="59.690625" y="252.886697" style="stroke: #000000; stroke-width: 0.8"/>
      </g>
     </g>
     <g id="text_9">
      <!-- 10000 -->
      <g transform="translate(20.878125 256.685916) scale(0.1 -0.1)">
       <use xlink:href="#DejaVuSans-31"/>
       <use xlink:href="#DejaVuSans-30" x="63.623047"/>
       <use xlink:href="#DejaVuSans-30" x="127.246094"/>
       <use xlink:href="#DejaVuSans-30" x="190.869141"/>
       <use xlink:href="#DejaVuSans-30" x="254.492188"/>
      </g>
     </g>
    </g>
    <g id="ytick_3">
     <g id="line2d_9">
      <g>
       <use xlink:href="#m2c27f9324c" x="59.690625" y="216.173394" style="stroke: #000000; stroke-width: 0.8"/>
      </g>
     </g>
     <g id="text_10">
      <!-- 20000 -->
      <g transform="translate(20.878125 219.972613) scale(0.1 -0.1)">
       <use xlink:href="#DejaVuSans-32"/>
       <use xlink:href="#DejaVuSans-30" x="63.623047"/>
       <use xlink:href="#DejaVuSans-30" x="127.246094"/>
       <use xlink:href="#DejaVuSans-30" x="190.869141"/>
       <use xlink:href="#DejaVuSans-30" x="254.492188"/>
      </g>
     </g>
    </g>
    <g id="ytick_4">
     <g id="line2d_10">
      <g>
       <use xlink:href="#m2c27f9324c" x="59.690625" y="179.460092" style="stroke: #000000; stroke-width: 0.8"/>
      </g>
     </g>
     <g id="text_11">
      <!-- 30000 -->
      <g transform="translate(20.878125 183.25931) scale(0.1 -0.1)">
       <defs>
        <path id="DejaVuSans-33" d="M 2597 2516 
Q 3050 2419 3304 2112 
Q 3559 1806 3559 1356 
Q 3559 666 3084 287 
Q 2609 -91 1734 -91 
Q 1441 -91 1130 -33 
Q 819 25 488 141 
L 488 750 
Q 750 597 1062 519 
Q 1375 441 1716 441 
Q 2309 441 2620 675 
Q 2931 909 2931 1356 
Q 2931 1769 2642 2001 
Q 2353 2234 1838 2234 
L 1294 2234 
L 1294 2753 
L 1863 2753 
Q 2328 2753 2575 2939 
Q 2822 3125 2822 3475 
Q 2822 3834 2567 4026 
Q 2313 4219 1838 4219 
Q 1578 4219 1281 4162 
Q 984 4106 628 3988 
L 628 4550 
Q 988 4650 1302 4700 
Q 1616 4750 1894 4750 
Q 2613 4750 3031 4423 
Q 3450 4097 3450 3541 
Q 3450 3153 3228 2886 
Q 3006 2619 2597 2516 
z
" transform="scale(0.015625)"/>
       </defs>
       <use xlink:href="#DejaVuSans-33"/>
       <use xlink:href="#DejaVuSans-30" x="63.623047"/>
       <use xlink:href="#DejaVuSans-30" x="127.246094"/>
       <use xlink:href="#DejaVuSans-30" x="190.869141"/>
       <use xlink:href="#DejaVuSans-30" x="254.492188"/>
      </g>
     </g>
    </g>
    <g id="ytick_5">
     <g id="line2d_11">
      <g>
       <use xlink:href="#m2c27f9324c" x="59.690625" y="142.746789" style="stroke: #000000; stroke-width: 0.8"/>
      </g>
     </g>
     <g id="text_12">
      <!-- 40000 -->
      <g transform="translate(20.878125 146.546008) scale(0.1 -0.1)">
       <use xlink:href="#DejaVuSans-34"/>
       <use xlink:href="#DejaVuSans-30" x="63.623047"/>
       <use xlink:href="#DejaVuSans-30" x="127.246094"/>
       <use xlink:href="#DejaVuSans-30" x="190.869141"/>
       <use xlink:href="#DejaVuSans-30" x="254.492188"/>
      </g>
     </g>
    </g>
    <g id="ytick_6">
     <g id="line2d_12">
      <g>
       <use xlink:href="#m2c27f9324c" x="59.690625" y="106.033486" style="stroke: #000000; stroke-width: 0.8"/>
      </g>
     </g>
     <g id="text_13">
      <!-- 50000 -->
      <g transform="translate(20.878125 109.832705) scale(0.1 -0.1)">
       <defs>
        <path id="DejaVuSans-35" d="M 691 4666 
L 3169 4666 
L 3169 4134 
L 1269 4134 
L 1269 2991 
Q 1406 3038 1543 3061 
Q 1681 3084 1819 3084 
Q 2600 3084 3056 2656 
Q 3513 2228 3513 1497 
Q 3513 744 3044 326 
Q 2575 -91 1722 -91 
Q 1428 -91 1123 -41 
Q 819 9 494 109 
L 494 744 
Q 775 591 1075 516 
Q 1375 441 1709 441 
Q 2250 441 2565 725 
Q 2881 1009 2881 1497 
Q 2881 1984 2565 2268 
Q 2250 2553 1709 2553 
Q 1456 2553 1204 2497 
Q 953 2441 691 2322 
L 691 4666 
z
" transform="scale(0.015625)"/>
       </defs>
       <use xlink:href="#DejaVuSans-35"/>
       <use xlink:href="#DejaVuSans-30" x="63.623047"/>
       <use xlink:href="#DejaVuSans-30" x="127.246094"/>
       <use xlink:href="#DejaVuSans-30" x="190.869141"/>
       <use xlink:href="#DejaVuSans-30" x="254.492188"/>
      </g>
     </g>
    </g>
    <g id="ytick_7">
     <g id="line2d_13">
      <g>
       <use xlink:href="#m2c27f9324c" x="59.690625" y="69.320183" style="stroke: #000000; stroke-width: 0.8"/>
      </g>
     </g>
     <g id="text_14">
      <!-- 60000 -->
      <g transform="translate(20.878125 73.119402) scale(0.1 -0.1)">
       <use xlink:href="#DejaVuSans-36"/>
       <use xlink:href="#DejaVuSans-30" x="63.623047"/>
       <use xlink:href="#DejaVuSans-30" x="127.246094"/>
       <use xlink:href="#DejaVuSans-30" x="190.869141"/>
       <use xlink:href="#DejaVuSans-30" x="254.492188"/>
      </g>
     </g>
    </g>
    <g id="text_15">
     <!-- Count -->
     <g transform="translate(14.798438 181.248437) rotate(-90) scale(0.1 -0.1)">
      <defs>
       <path id="DejaVuSans-43" d="M 4122 4306 
L 4122 3641 
Q 3803 3938 3442 4084 
Q 3081 4231 2675 4231 
Q 1875 4231 1450 3742 
Q 1025 3253 1025 2328 
Q 1025 1406 1450 917 
Q 1875 428 2675 428 
Q 3081 428 3442 575 
Q 3803 722 4122 1019 
L 4122 359 
Q 3791 134 3420 21 
Q 3050 -91 2638 -91 
Q 1578 -91 968 557 
Q 359 1206 359 2328 
Q 359 3453 968 4101 
Q 1578 4750 2638 4750 
Q 3056 4750 3426 4639 
Q 3797 4528 4122 4306 
z
" transform="scale(0.015625)"/>
       <path id="DejaVuSans-6f" d="M 1959 3097 
Q 1497 3097 1228 2736 
Q 959 2375 959 1747 
Q 959 1119 1226 758 
Q 1494 397 1959 397 
Q 2419 397 2687 759 
Q 2956 1122 2956 1747 
Q 2956 2369 2687 2733 
Q 2419 3097 1959 3097 
z
M 1959 3584 
Q 2709 3584 3137 3096 
Q 3566 2609 3566 1747 
Q 3566 888 3137 398 
Q 2709 -91 1959 -91 
Q 1206 -91 779 398 
Q 353 888 353 1747 
Q 353 2609 779 3096 
Q 1206 3584 1959 3584 
z
" transform="scale(0.015625)"/>
       <path id="DejaVuSans-75" d="M 544 1381 
L 544 3500 
L 1119 3500 
L 1119 1403 
Q 1119 906 1312 657 
Q 1506 409 1894 409 
Q 2359 409 2629 706 
Q 2900 1003 2900 1516 
L 2900 3500 
L 3475 3500 
L 3475 0 
L 2900 0 
L 2900 538 
Q 2691 219 2414 64 
Q 2138 -91 1772 -91 
Q 1169 -91 856 284 
Q 544 659 544 1381 
z
M 1991 3584 
L 1991 3584 
z
" transform="scale(0.015625)"/>
       <path id="DejaVuSans-6e" d="M 3513 2113 
L 3513 0 
L 2938 0 
L 2938 2094 
Q 2938 2591 2744 2837 
Q 2550 3084 2163 3084 
Q 1697 3084 1428 2787 
Q 1159 2491 1159 1978 
L 1159 0 
L 581 0 
L 581 3500 
L 1159 3500 
L 1159 2956 
Q 1366 3272 1645 3428 
Q 1925 3584 2291 3584 
Q 2894 3584 3203 3211 
Q 3513 2838 3513 2113 
z
" transform="scale(0.015625)"/>
       <path id="DejaVuSans-74" d="M 1172 4494 
L 1172 3500 
L 2356 3500 
L 2356 3053 
L 1172 3053 
L 1172 1153 
Q 1172 725 1289 603 
Q 1406 481 1766 481 
L 2356 481 
L 2356 0 
L 1766 0 
Q 1100 0 847 248 
Q 594 497 594 1153 
L 594 3053 
L 172 3053 
L 172 3500 
L 594 3500 
L 594 4494 
L 1172 4494 
z
" transform="scale(0.015625)"/>
      </defs>
      <use xlink:href="#DejaVuSans-43"/>
      <use xlink:href="#DejaVuSans-6f" x="69.824219"/>
      <use xlink:href="#DejaVuSans-75" x="131.005859"/>
      <use xlink:href="#DejaVuSans-6e" x="194.384766"/>
      <use xlink:href="#DejaVuSans-74" x="257.763672"/>
     </g>
    </g>
   </g>
   <g id="line2d_14">
    <path d="M 128.632208 289.586878 
L 144.805728 289.558644 
L 166.937913 289.142934 
L 171.194102 288.591694 
L 172.04534 288.001606 
L 172.896578 286.987001 
L 173.747816 286.388902 
L 174.599054 286.702797 
L 175.450291 287.335035 
L 176.301529 287.746192 
L 177.152767 287.859854 
L 178.004005 287.500736 
L 179.706481 285.719022 
L 181.408957 285.421348 
L 182.260194 284.163127 
L 183.111432 281.607532 
L 183.96267 279.417566 
L 184.813908 278.818832 
L 185.665146 278.654402 
L 186.516384 278.792344 
L 187.367622 279.74441 
L 188.218859 280.220307 
L 189.070097 279.455403 
L 189.921335 277.743592 
L 190.772573 275.701762 
L 191.623811 273.366297 
L 192.475049 269.811787 
L 194.177525 259.982721 
L 195.88 253.334807 
L 196.731238 250.222245 
L 197.582476 248.516292 
L 198.433714 246.100126 
L 200.13619 237.204351 
L 200.987428 232.098027 
L 201.838665 224.718226 
L 204.392379 198.148131 
L 205.243617 190.459714 
L 206.094855 179.436181 
L 208.648568 136.539765 
L 211.202282 106.298662 
L 212.05352 97.412575 
L 212.904758 90.422003 
L 214.607234 72.033308 
L 215.458471 66.42194 
L 217.160947 56.976615 
L 218.012185 54.933333 
L 218.863423 58.839681 
L 219.714661 67.085165 
L 220.565899 72.078638 
L 221.417137 71.44593 
L 222.268374 75.210244 
L 223.97085 101.852224 
L 225.673326 116.662441 
L 226.524564 130.625401 
L 227.375802 147.631998 
L 228.22704 159.133459 
L 229.078277 165.800981 
L 229.929515 173.808249 
L 232.483229 212.207877 
L 235.036942 236.237028 
L 238.441894 260.268158 
L 239.293132 264.66553 
L 240.14437 268.254235 
L 240.995608 271.110334 
L 242.698083 275.636187 
L 244.400559 279.569394 
L 245.251797 281.031578 
L 246.103035 282.040359 
L 246.954273 282.826867 
L 248.656748 284.91311 
L 249.507986 286.049257 
L 250.359224 286.96503 
L 251.210462 287.362271 
L 252.912938 287.426467 
L 254.615414 288.05849 
L 255.466651 288.366471 
L 258.020365 288.901029 
L 259.722841 289.013095 
L 261.425317 288.935387 
L 265.681506 289.312773 
L 267.383982 289.362457 
L 269.086457 289.517176 
L 275.89636 289.56556 
L 281.003788 289.6 
L 298.028545 289.586878 
L 298.028545 289.586878 
" clip-path="url(#pa0f8f0849f)" style="fill: none; stroke: #1f77b4; stroke-width: 1.5; stroke-linecap: square"/>
   </g>
   <g id="patch_28">
    <path d="M 59.690625 289.6 
L 59.690625 43.2 
" style="fill: none; stroke: #000000; stroke-width: 0.8; stroke-linejoin: miter; stroke-linecap: square"/>
   </g>
   <g id="patch_29">
    <path d="M 313.326989 289.6 
L 313.326989 43.2 
" style="fill: none; stroke: #000000; stroke-width: 0.8; stroke-linejoin: miter; stroke-linecap: square"/>
   </g>
   <g id="patch_30">
    <path d="M 59.690625 289.6 
L 313.326989 289.6 
" style="fill: none; stroke: #000000; stroke-width: 0.8; stroke-linejoin: miter; stroke-linecap: square"/>
   </g>
   <g id="patch_31">
    <path d="M 59.690625 43.2 
L 313.326989 43.2 
" style="fill: none; stroke: #000000; stroke-width: 0.8; stroke-linejoin: miter; stroke-linecap: square"/>
   </g>
   <g id="text_16">
    <!-- Valence -->
    <g transform="translate(163.040369 37.2) scale(0.12 -0.12)">
     <defs>
      <path id="DejaVuSans-61" d="M 2194 1759 
Q 1497 1759 1228 1600 
Q 959 1441 959 1056 
Q 959 750 1161 570 
Q 1363 391 1709 391 
Q 2188 391 2477 730 
Q 2766 1069 2766 1631 
L 2766 1759 
L 2194 1759 
z
M 3341 1997 
L 3341 0 
L 2766 0 
L 2766 531 
Q 2569 213 2275 61 
Q 1981 -91 1556 -91 
Q 1019 -91 701 211 
Q 384 513 384 1019 
Q 384 1609 779 1909 
Q 1175 2209 1959 2209 
L 2766 2209 
L 2766 2266 
Q 2766 2663 2505 2880 
Q 2244 3097 1772 3097 
Q 1472 3097 1187 3025 
Q 903 2953 641 2809 
L 641 3341 
Q 956 3463 1253 3523 
Q 1550 3584 1831 3584 
Q 2591 3584 2966 3190 
Q 3341 2797 3341 1997 
z
" transform="scale(0.015625)"/>
      <path id="DejaVuSans-6c" d="M 603 4863 
L 1178 4863 
L 1178 0 
L 603 0 
L 603 4863 
z
" transform="scale(0.015625)"/>
      <path id="DejaVuSans-65" d="M 3597 1894 
L 3597 1613 
L 953 1613 
Q 991 1019 1311 708 
Q 1631 397 2203 397 
Q 2534 397 2845 478 
Q 3156 559 3463 722 
L 3463 178 
Q 3153 47 2828 -22 
Q 2503 -91 2169 -91 
Q 1331 -91 842 396 
Q 353 884 353 1716 
Q 353 2575 817 3079 
Q 1281 3584 2069 3584 
Q 2775 3584 3186 3129 
Q 3597 2675 3597 1894 
z
M 3022 2063 
Q 3016 2534 2758 2815 
Q 2500 3097 2075 3097 
Q 1594 3097 1305 2825 
Q 1016 2553 972 2059 
L 3022 2063 
z
" transform="scale(0.015625)"/>
      <path id="DejaVuSans-63" d="M 3122 3366 
L 3122 2828 
Q 2878 2963 2633 3030 
Q 2388 3097 2138 3097 
Q 1578 3097 1268 2742 
Q 959 2388 959 1747 
Q 959 1106 1268 751 
Q 1578 397 2138 397 
Q 2388 397 2633 464 
Q 2878 531 3122 666 
L 3122 134 
Q 2881 22 2623 -34 
Q 2366 -91 2075 -91 
Q 1284 -91 818 406 
Q 353 903 353 1747 
Q 353 2603 823 3093 
Q 1294 3584 2113 3584 
Q 2378 3584 2631 3529 
Q 2884 3475 3122 3366 
z
" transform="scale(0.015625)"/>
     </defs>
     <use xlink:href="#DejaVuSans-56"/>
     <use xlink:href="#DejaVuSans-61" x="60.658203"/>
     <use xlink:href="#DejaVuSans-6c" x="121.9375"/>
     <use xlink:href="#DejaVuSans-65" x="149.720703"/>
     <use xlink:href="#DejaVuSans-6e" x="211.244141"/>
     <use xlink:href="#DejaVuSans-63" x="274.623047"/>
     <use xlink:href="#DejaVuSans-65" x="329.603516"/>
    </g>
   </g>
  </g>
  <g id="axes_2">
   <g id="patch_32">
    <path d="M 364.054261 289.6 
L 617.690625 289.6 
L 617.690625 43.2 
L 364.054261 43.2 
z
" style="fill: #ffffff"/>
   </g>
   <g id="patch_33">
    <path d="M 375.583187 289.6 
L 383.470178 289.6 
L 383.470178 289.6 
L 375.583187 289.6 
z
" clip-path="url(#p84890ddd1e)" style="fill: #1f77b4; fill-opacity: 0.5"/>
   </g>
   <g id="patch_34">
    <path d="M 384.862 289.6 
L 392.748992 289.6 
L 392.748992 289.6 
L 384.862 289.6 
z
" clip-path="url(#p84890ddd1e)" style="fill: #1f77b4; fill-opacity: 0.5"/>
   </g>
   <g id="patch_35">
    <path d="M 394.140814 289.6 
L 402.027805 289.6 
L 402.027805 289.6 
L 394.140814 289.6 
z
" clip-path="url(#p84890ddd1e)" style="fill: #1f77b4; fill-opacity: 0.5"/>
   </g>
   <g id="patch_36">
    <path d="M 403.419627 289.6 
L 411.306618 289.6 
L 411.306618 289.596992 
L 403.419627 289.596992 
z
" clip-path="url(#p84890ddd1e)" style="fill: #1f77b4; fill-opacity: 0.5"/>
   </g>
   <g id="patch_37">
    <path d="M 412.69844 289.6 
L 420.585432 289.6 
L 420.585432 289.6 
L 412.69844 289.6 
z
" clip-path="url(#p84890ddd1e)" style="fill: #1f77b4; fill-opacity: 0.5"/>
   </g>
   <g id="patch_38">
    <path d="M 421.977254 289.6 
L 429.864245 289.6 
L 429.864245 289.587966 
L 421.977254 289.587966 
z
" clip-path="url(#p84890ddd1e)" style="fill: #1f77b4; fill-opacity: 0.5"/>
   </g>
   <g id="patch_39">
    <path d="M 431.256067 289.6 
L 439.143059 289.6 
L 439.143059 289.545849 
L 431.256067 289.545849 
z
" clip-path="url(#p84890ddd1e)" style="fill: #1f77b4; fill-opacity: 0.5"/>
   </g>
   <g id="patch_40">
    <path d="M 440.534881 289.6 
L 448.421872 289.6 
L 448.421872 289.010354 
L 440.534881 289.010354 
z
" clip-path="url(#p84890ddd1e)" style="fill: #1f77b4; fill-opacity: 0.5"/>
   </g>
   <g id="patch_41">
    <path d="M 449.813694 289.6 
L 457.700685 289.6 
L 457.700685 285.451418 
L 449.813694 285.451418 
z
" clip-path="url(#p84890ddd1e)" style="fill: #1f77b4; fill-opacity: 0.5"/>
   </g>
   <g id="patch_42">
    <path d="M 459.092507 289.6 
L 466.979499 289.6 
L 466.979499 267.78309 
L 459.092507 267.78309 
z
" clip-path="url(#p84890ddd1e)" style="fill: #1f77b4; fill-opacity: 0.5"/>
   </g>
   <g id="patch_43">
    <path d="M 468.371321 289.6 
L 476.258312 289.6 
L 476.258312 190.560496 
L 468.371321 190.560496 
z
" clip-path="url(#p84890ddd1e)" style="fill: #1f77b4; fill-opacity: 0.5"/>
   </g>
   <g id="patch_44">
    <path d="M 477.650134 289.6 
L 485.537125 289.6 
L 485.537125 69.884586 
L 477.650134 69.884586 
z
" clip-path="url(#p84890ddd1e)" style="fill: #1f77b4; fill-opacity: 0.5"/>
   </g>
   <g id="patch_45">
    <path d="M 486.928947 289.6 
L 494.815939 289.6 
L 494.815939 144.995284 
L 486.928947 144.995284 
z
" clip-path="url(#p84890ddd1e)" style="fill: #1f77b4; fill-opacity: 0.5"/>
   </g>
   <g id="patch_46">
    <path d="M 496.207761 289.6 
L 504.094752 289.6 
L 504.094752 254.687529 
L 496.207761 254.687529 
z
" clip-path="url(#p84890ddd1e)" style="fill: #1f77b4; fill-opacity: 0.5"/>
   </g>
   <g id="patch_47">
    <path d="M 505.486574 289.6 
L 513.373566 289.6 
L 513.373566 283.541084 
L 505.486574 283.541084 
z
" clip-path="url(#p84890ddd1e)" style="fill: #1f77b4; fill-opacity: 0.5"/>
   </g>
   <g id="patch_48">
    <path d="M 514.765388 289.6 
L 522.652379 289.6 
L 522.652379 288.249229 
L 514.765388 288.249229 
z
" clip-path="url(#p84890ddd1e)" style="fill: #1f77b4; fill-opacity: 0.5"/>
   </g>
   <g id="patch_49">
    <path d="M 524.044201 289.6 
L 531.931192 289.6 
L 531.931192 289.245009 
L 524.044201 289.245009 
z
" clip-path="url(#p84890ddd1e)" style="fill: #1f77b4; fill-opacity: 0.5"/>
   </g>
   <g id="patch_50">
    <path d="M 533.323014 289.6 
L 541.210006 289.6 
L 541.210006 289.497714 
L 533.323014 289.497714 
z
" clip-path="url(#p84890ddd1e)" style="fill: #1f77b4; fill-opacity: 0.5"/>
   </g>
   <g id="patch_51">
    <path d="M 542.601828 289.6 
L 550.488819 289.6 
L 550.488819 289.578941 
L 542.601828 289.578941 
z
" clip-path="url(#p84890ddd1e)" style="fill: #1f77b4; fill-opacity: 0.5"/>
   </g>
   <g id="patch_52">
    <path d="M 551.880641 289.6 
L 559.767632 289.6 
L 559.767632 289.590975 
L 551.880641 289.590975 
z
" clip-path="url(#p84890ddd1e)" style="fill: #1f77b4; fill-opacity: 0.5"/>
   </g>
   <g id="patch_53">
    <path d="M 561.159455 289.6 
L 569.046446 289.6 
L 569.046446 289.587966 
L 561.159455 289.587966 
z
" clip-path="url(#p84890ddd1e)" style="fill: #1f77b4; fill-opacity: 0.5"/>
   </g>
   <g id="patch_54">
    <path d="M 570.438268 289.6 
L 578.325259 289.6 
L 578.325259 289.6 
L 570.438268 289.6 
z
" clip-path="url(#p84890ddd1e)" style="fill: #1f77b4; fill-opacity: 0.5"/>
   </g>
   <g id="patch_55">
    <path d="M 579.717081 289.6 
L 587.604073 289.6 
L 587.604073 289.6 
L 579.717081 289.6 
z
" clip-path="url(#p84890ddd1e)" style="fill: #1f77b4; fill-opacity: 0.5"/>
   </g>
   <g id="patch_56">
    <path d="M 588.995895 289.6 
L 596.882886 289.6 
L 596.882886 289.6 
L 588.995895 289.6 
z
" clip-path="url(#p84890ddd1e)" style="fill: #1f77b4; fill-opacity: 0.5"/>
   </g>
   <g id="patch_57">
    <path d="M 598.274708 289.6 
L 606.161699 289.6 
L 606.161699 289.6 
L 598.274708 289.6 
z
" clip-path="url(#p84890ddd1e)" style="fill: #1f77b4; fill-opacity: 0.5"/>
   </g>
   <g id="matplotlib.axis_3">
    <g id="xtick_7">
     <g id="line2d_15">
      <g>
       <use xlink:href="#medb85f9946" x="374.887276" y="289.6" style="stroke: #000000; stroke-width: 0.8"/>
      </g>
     </g>
     <g id="text_17">
      <!-- 0.0 -->
      <g transform="translate(366.935713 304.198437) scale(0.1 -0.1)">
       <use xlink:href="#DejaVuSans-30"/>
       <use xlink:href="#DejaVuSans-2e" x="63.623047"/>
       <use xlink:href="#DejaVuSans-30" x="95.410156"/>
      </g>
     </g>
    </g>
    <g id="xtick_8">
     <g id="line2d_16">
      <g>
       <use xlink:href="#medb85f9946" x="421.281343" y="289.6" style="stroke: #000000; stroke-width: 0.8"/>
      </g>
     </g>
     <g id="text_18">
      <!-- 0.2 -->
      <g transform="translate(413.32978 304.198437) scale(0.1 -0.1)">
       <use xlink:href="#DejaVuSans-30"/>
       <use xlink:href="#DejaVuSans-2e" x="63.623047"/>
       <use xlink:href="#DejaVuSans-32" x="95.410156"/>
      </g>
     </g>
    </g>
    <g id="xtick_9">
     <g id="line2d_17">
      <g>
       <use xlink:href="#medb85f9946" x="467.67541" y="289.6" style="stroke: #000000; stroke-width: 0.8"/>
      </g>
     </g>
     <g id="text_19">
      <!-- 0.4 -->
      <g transform="translate(459.723847 304.198437) scale(0.1 -0.1)">
       <use xlink:href="#DejaVuSans-30"/>
       <use xlink:href="#DejaVuSans-2e" x="63.623047"/>
       <use xlink:href="#DejaVuSans-34" x="95.410156"/>
      </g>
     </g>
    </g>
    <g id="xtick_10">
     <g id="line2d_18">
      <g>
       <use xlink:href="#medb85f9946" x="514.069477" y="289.6" style="stroke: #000000; stroke-width: 0.8"/>
      </g>
     </g>
     <g id="text_20">
      <!-- 0.6 -->
      <g transform="translate(506.117914 304.198437) scale(0.1 -0.1)">
       <use xlink:href="#DejaVuSans-30"/>
       <use xlink:href="#DejaVuSans-2e" x="63.623047"/>
       <use xlink:href="#DejaVuSans-36" x="95.410156"/>
      </g>
     </g>
    </g>
    <g id="xtick_11">
     <g id="line2d_19">
      <g>
       <use xlink:href="#medb85f9946" x="560.463544" y="289.6" style="stroke: #000000; stroke-width: 0.8"/>
      </g>
     </g>
     <g id="text_21">
      <!-- 0.8 -->
      <g transform="translate(552.511981 304.198437) scale(0.1 -0.1)">
       <use xlink:href="#DejaVuSans-30"/>
       <use xlink:href="#DejaVuSans-2e" x="63.623047"/>
       <use xlink:href="#DejaVuSans-38" x="95.410156"/>
      </g>
     </g>
    </g>
    <g id="xtick_12">
     <g id="line2d_20">
      <g>
       <use xlink:href="#medb85f9946" x="606.85761" y="289.6" style="stroke: #000000; stroke-width: 0.8"/>
      </g>
     </g>
     <g id="text_22">
      <!-- 1.0 -->
      <g transform="translate(598.906048 304.198437) scale(0.1 -0.1)">
       <use xlink:href="#DejaVuSans-31"/>
       <use xlink:href="#DejaVuSans-2e" x="63.623047"/>
       <use xlink:href="#DejaVuSans-30" x="95.410156"/>
      </g>
     </g>
    </g>
    <g id="text_23">
     <!-- A -->
     <g transform="translate(487.452131 317.876562) scale(0.1 -0.1)">
      <defs>
       <path id="DejaVuSans-41" d="M 2188 4044 
L 1331 1722 
L 3047 1722 
L 2188 4044 
z
M 1831 4666 
L 2547 4666 
L 4325 0 
L 3669 0 
L 3244 1197 
L 1141 1197 
L 716 0 
L 50 0 
L 1831 4666 
z
" transform="scale(0.015625)"/>
      </defs>
      <use xlink:href="#DejaVuSans-41"/>
     </g>
    </g>
   </g>
   <g id="matplotlib.axis_4">
    <g id="ytick_8">
     <g id="line2d_21">
      <g>
       <use xlink:href="#m2c27f9324c" x="364.054261" y="289.6" style="stroke: #000000; stroke-width: 0.8"/>
      </g>
     </g>
     <g id="text_24">
      <!-- 0 -->
      <g transform="translate(350.691761 293.399219) scale(0.1 -0.1)">
       <use xlink:href="#DejaVuSans-30"/>
      </g>
     </g>
    </g>
    <g id="ytick_9">
     <g id="line2d_22">
      <g>
       <use xlink:href="#m2c27f9324c" x="364.054261" y="259.51601" style="stroke: #000000; stroke-width: 0.8"/>
      </g>
     </g>
     <g id="text_25">
      <!-- 10000 -->
      <g transform="translate(325.241761 263.315229) scale(0.1 -0.1)">
       <use xlink:href="#DejaVuSans-31"/>
       <use xlink:href="#DejaVuSans-30" x="63.623047"/>
       <use xlink:href="#DejaVuSans-30" x="127.246094"/>
       <use xlink:href="#DejaVuSans-30" x="190.869141"/>
       <use xlink:href="#DejaVuSans-30" x="254.492188"/>
      </g>
     </g>
    </g>
    <g id="ytick_10">
     <g id="line2d_23">
      <g>
       <use xlink:href="#m2c27f9324c" x="364.054261" y="229.43202" style="stroke: #000000; stroke-width: 0.8"/>
      </g>
     </g>
     <g id="text_26">
      <!-- 20000 -->
      <g transform="translate(325.241761 233.231238) scale(0.1 -0.1)">
       <use xlink:href="#DejaVuSans-32"/>
       <use xlink:href="#DejaVuSans-30" x="63.623047"/>
       <use xlink:href="#DejaVuSans-30" x="127.246094"/>
       <use xlink:href="#DejaVuSans-30" x="190.869141"/>
       <use xlink:href="#DejaVuSans-30" x="254.492188"/>
      </g>
     </g>
    </g>
    <g id="ytick_11">
     <g id="line2d_24">
      <g>
       <use xlink:href="#m2c27f9324c" x="364.054261" y="199.348029" style="stroke: #000000; stroke-width: 0.8"/>
      </g>
     </g>
     <g id="text_27">
      <!-- 30000 -->
      <g transform="translate(325.241761 203.147248) scale(0.1 -0.1)">
       <use xlink:href="#DejaVuSans-33"/>
       <use xlink:href="#DejaVuSans-30" x="63.623047"/>
       <use xlink:href="#DejaVuSans-30" x="127.246094"/>
       <use xlink:href="#DejaVuSans-30" x="190.869141"/>
       <use xlink:href="#DejaVuSans-30" x="254.492188"/>
      </g>
     </g>
    </g>
    <g id="ytick_12">
     <g id="line2d_25">
      <g>
       <use xlink:href="#m2c27f9324c" x="364.054261" y="169.264039" style="stroke: #000000; stroke-width: 0.8"/>
      </g>
     </g>
     <g id="text_28">
      <!-- 40000 -->
      <g transform="translate(325.241761 173.063258) scale(0.1 -0.1)">
       <use xlink:href="#DejaVuSans-34"/>
       <use xlink:href="#DejaVuSans-30" x="63.623047"/>
       <use xlink:href="#DejaVuSans-30" x="127.246094"/>
       <use xlink:href="#DejaVuSans-30" x="190.869141"/>
       <use xlink:href="#DejaVuSans-30" x="254.492188"/>
      </g>
     </g>
    </g>
    <g id="ytick_13">
     <g id="line2d_26">
      <g>
       <use xlink:href="#m2c27f9324c" x="364.054261" y="139.180049" style="stroke: #000000; stroke-width: 0.8"/>
      </g>
     </g>
     <g id="text_29">
      <!-- 50000 -->
      <g transform="translate(325.241761 142.979268) scale(0.1 -0.1)">
       <use xlink:href="#DejaVuSans-35"/>
       <use xlink:href="#DejaVuSans-30" x="63.623047"/>
       <use xlink:href="#DejaVuSans-30" x="127.246094"/>
       <use xlink:href="#DejaVuSans-30" x="190.869141"/>
       <use xlink:href="#DejaVuSans-30" x="254.492188"/>
      </g>
     </g>
    </g>
    <g id="ytick_14">
     <g id="line2d_27">
      <g>
       <use xlink:href="#m2c27f9324c" x="364.054261" y="109.096059" style="stroke: #000000; stroke-width: 0.8"/>
      </g>
     </g>
     <g id="text_30">
      <!-- 60000 -->
      <g transform="translate(325.241761 112.895277) scale(0.1 -0.1)">
       <use xlink:href="#DejaVuSans-36"/>
       <use xlink:href="#DejaVuSans-30" x="63.623047"/>
       <use xlink:href="#DejaVuSans-30" x="127.246094"/>
       <use xlink:href="#DejaVuSans-30" x="190.869141"/>
       <use xlink:href="#DejaVuSans-30" x="254.492188"/>
      </g>
     </g>
    </g>
    <g id="ytick_15">
     <g id="line2d_28">
      <g>
       <use xlink:href="#m2c27f9324c" x="364.054261" y="79.012068" style="stroke: #000000; stroke-width: 0.8"/>
      </g>
     </g>
     <g id="text_31">
      <!-- 70000 -->
      <g transform="translate(325.241761 82.811287) scale(0.1 -0.1)">
       <defs>
        <path id="DejaVuSans-37" d="M 525 4666 
L 3525 4666 
L 3525 4397 
L 1831 0 
L 1172 0 
L 2766 4134 
L 525 4134 
L 525 4666 
z
" transform="scale(0.015625)"/>
       </defs>
       <use xlink:href="#DejaVuSans-37"/>
       <use xlink:href="#DejaVuSans-30" x="63.623047"/>
       <use xlink:href="#DejaVuSans-30" x="127.246094"/>
       <use xlink:href="#DejaVuSans-30" x="190.869141"/>
       <use xlink:href="#DejaVuSans-30" x="254.492188"/>
      </g>
     </g>
    </g>
    <g id="ytick_16">
     <g id="line2d_29">
      <g>
       <use xlink:href="#m2c27f9324c" x="364.054261" y="48.928078" style="stroke: #000000; stroke-width: 0.8"/>
      </g>
     </g>
     <g id="text_32">
      <!-- 80000 -->
      <g transform="translate(325.241761 52.727297) scale(0.1 -0.1)">
       <use xlink:href="#DejaVuSans-38"/>
       <use xlink:href="#DejaVuSans-30" x="63.623047"/>
       <use xlink:href="#DejaVuSans-30" x="127.246094"/>
       <use xlink:href="#DejaVuSans-30" x="190.869141"/>
       <use xlink:href="#DejaVuSans-30" x="254.492188"/>
      </g>
     </g>
    </g>
   </g>
   <g id="line2d_30">
    <path d="M 411.306618 289.58679 
L 427.989249 289.585515 
L 431.166893 289.577052 
L 436.727769 289.519545 
L 440.699824 289.332014 
L 442.288646 289.255801 
L 443.877468 289.211412 
L 445.46629 288.96433 
L 447.055112 288.883995 
L 447.849523 288.671931 
L 448.643934 288.324873 
L 451.027167 287.638361 
L 451.821578 287.130891 
L 453.4104 285.795214 
L 454.999222 284.943401 
L 455.793633 284.180827 
L 458.176866 280.860015 
L 459.765688 278.475061 
L 460.560099 276.835308 
L 461.35451 274.708208 
L 462.148921 272.0781 
L 464.532153 263.207504 
L 465.326564 260.520059 
L 466.120975 256.931808 
L 466.915386 251.994678 
L 467.709797 245.387334 
L 469.298619 227.527541 
L 470.09303 218.686184 
L 471.681852 203.672185 
L 473.270674 187.230576 
L 474.065085 174.852602 
L 475.653907 136.795859 
L 478.03714 103.250176 
L 479.625962 72.687536 
L 480.420373 64.340222 
L 481.214784 62.973026 
L 482.009195 60.559503 
L 482.803606 56.345359 
L 483.598017 54.933333 
L 484.392428 56.764379 
L 485.186839 60.920198 
L 485.98125 69.775628 
L 486.775661 80.105804 
L 487.570072 85.753063 
L 488.364483 96.307085 
L 489.953304 125.138288 
L 491.542126 154.080774 
L 493.130948 188.508346 
L 493.925359 200.731702 
L 495.514181 215.681789 
L 497.103003 235.4261 
L 497.897414 243.699611 
L 498.691825 250.2332 
L 501.075058 263.386361 
L 501.869469 267.17819 
L 502.66388 270.209633 
L 504.252702 274.808946 
L 506.635935 281.33424 
L 507.430346 282.053599 
L 508.224757 282.210613 
L 509.019168 282.965698 
L 509.813579 284.393985 
L 510.60799 285.319685 
L 512.196812 286.227722 
L 513.785634 287.450253 
L 514.580044 287.686191 
L 516.963277 288.017851 
L 518.552099 287.704103 
L 519.34651 288.022958 
L 520.140921 288.591653 
L 520.935332 288.907654 
L 523.318565 289.042611 
L 526.496209 289.036001 
L 528.085031 289.341026 
L 530.468264 289.496756 
L 533.645908 289.451018 
L 544.767661 289.579802 
L 557.478237 289.599775 
L 569.394401 289.58679 
L 569.394401 289.58679 
" clip-path="url(#p84890ddd1e)" style="fill: none; stroke: #1f77b4; stroke-width: 1.5; stroke-linecap: square"/>
   </g>
   <g id="patch_58">
    <path d="M 364.054261 289.6 
L 364.054261 43.2 
" style="fill: none; stroke: #000000; stroke-width: 0.8; stroke-linejoin: miter; stroke-linecap: square"/>
   </g>
   <g id="patch_59">
    <path d="M 617.690625 289.6 
L 617.690625 43.2 
" style="fill: none; stroke: #000000; stroke-width: 0.8; stroke-linejoin: miter; stroke-linecap: square"/>
   </g>
   <g id="patch_60">
    <path d="M 364.054261 289.6 
L 617.690625 289.6 
" style="fill: none; stroke: #000000; stroke-width: 0.8; stroke-linejoin: miter; stroke-linecap: square"/>
   </g>
   <g id="patch_61">
    <path d="M 364.054261 43.2 
L 617.690625 43.2 
" style="fill: none; stroke: #000000; stroke-width: 0.8; stroke-linejoin: miter; stroke-linecap: square"/>
   </g>
   <g id="text_33">
    <!-- Arousal -->
    <g transform="translate(468.493381 37.2) scale(0.12 -0.12)">
     <defs>
      <path id="DejaVuSans-72" d="M 2631 2963 
Q 2534 3019 2420 3045 
Q 2306 3072 2169 3072 
Q 1681 3072 1420 2755 
Q 1159 2438 1159 1844 
L 1159 0 
L 581 0 
L 581 3500 
L 1159 3500 
L 1159 2956 
Q 1341 3275 1631 3429 
Q 1922 3584 2338 3584 
Q 2397 3584 2469 3576 
Q 2541 3569 2628 3553 
L 2631 2963 
z
" transform="scale(0.015625)"/>
      <path id="DejaVuSans-73" d="M 2834 3397 
L 2834 2853 
Q 2591 2978 2328 3040 
Q 2066 3103 1784 3103 
Q 1356 3103 1142 2972 
Q 928 2841 928 2578 
Q 928 2378 1081 2264 
Q 1234 2150 1697 2047 
L 1894 2003 
Q 2506 1872 2764 1633 
Q 3022 1394 3022 966 
Q 3022 478 2636 193 
Q 2250 -91 1575 -91 
Q 1294 -91 989 -36 
Q 684 19 347 128 
L 347 722 
Q 666 556 975 473 
Q 1284 391 1588 391 
Q 1994 391 2212 530 
Q 2431 669 2431 922 
Q 2431 1156 2273 1281 
Q 2116 1406 1581 1522 
L 1381 1569 
Q 847 1681 609 1914 
Q 372 2147 372 2553 
Q 372 3047 722 3315 
Q 1072 3584 1716 3584 
Q 2034 3584 2315 3537 
Q 2597 3491 2834 3397 
z
" transform="scale(0.015625)"/>
     </defs>
     <use xlink:href="#DejaVuSans-41"/>
     <use xlink:href="#DejaVuSans-72" x="68.408203"/>
     <use xlink:href="#DejaVuSans-6f" x="107.271484"/>
     <use xlink:href="#DejaVuSans-75" x="168.453125"/>
     <use xlink:href="#DejaVuSans-73" x="231.832031"/>
     <use xlink:href="#DejaVuSans-61" x="283.931641"/>
     <use xlink:href="#DejaVuSans-6c" x="345.210938"/>
    </g>
   </g>
  </g>
  <g id="axes_3">
   <g id="patch_62">
    <path d="M 59.690625 597.6 
L 313.326989 597.6 
L 313.326989 351.2 
L 59.690625 351.2 
z
" style="fill: #ffffff"/>
   </g>
   <g id="patch_63">
    <path d="M 71.219551 597.6 
L 79.106542 597.6 
L 79.106542 597.6 
L 71.219551 597.6 
z
" clip-path="url(#pef976044b6)" style="fill: #1f77b4; fill-opacity: 0.5"/>
   </g>
   <g id="patch_64">
    <path d="M 80.498364 597.6 
L 88.385355 597.6 
L 88.385355 597.6 
L 80.498364 597.6 
z
" clip-path="url(#pef976044b6)" style="fill: #1f77b4; fill-opacity: 0.5"/>
   </g>
   <g id="patch_65">
    <path d="M 89.777177 597.6 
L 97.664169 597.6 
L 97.664169 597.6 
L 89.777177 597.6 
z
" clip-path="url(#pef976044b6)" style="fill: #1f77b4; fill-opacity: 0.5"/>
   </g>
   <g id="patch_66">
    <path d="M 99.055991 597.6 
L 106.942982 597.6 
L 106.942982 597.6 
L 99.055991 597.6 
z
" clip-path="url(#pef976044b6)" style="fill: #1f77b4; fill-opacity: 0.5"/>
   </g>
   <g id="patch_67">
    <path d="M 108.334804 597.6 
L 116.221795 597.6 
L 116.221795 597.6 
L 108.334804 597.6 
z
" clip-path="url(#pef976044b6)" style="fill: #1f77b4; fill-opacity: 0.5"/>
   </g>
   <g id="patch_68">
    <path d="M 117.613618 597.6 
L 125.500609 597.6 
L 125.500609 597.6 
L 117.613618 597.6 
z
" clip-path="url(#pef976044b6)" style="fill: #1f77b4; fill-opacity: 0.5"/>
   </g>
   <g id="patch_69">
    <path d="M 126.892431 597.6 
L 134.779422 597.6 
L 134.779422 597.6 
L 126.892431 597.6 
z
" clip-path="url(#pef976044b6)" style="fill: #1f77b4; fill-opacity: 0.5"/>
   </g>
   <g id="patch_70">
    <path d="M 136.171244 597.6 
L 144.058236 597.6 
L 144.058236 597.59424 
L 136.171244 597.59424 
z
" clip-path="url(#pef976044b6)" style="fill: #1f77b4; fill-opacity: 0.5"/>
   </g>
   <g id="patch_71">
    <path d="M 145.450058 597.6 
L 153.337049 597.6 
L 153.337049 597.536638 
L 145.450058 597.536638 
z
" clip-path="url(#pef976044b6)" style="fill: #1f77b4; fill-opacity: 0.5"/>
   </g>
   <g id="patch_72">
    <path d="M 154.728871 597.6 
L 162.615862 597.6 
L 162.615862 597.424316 
L 154.728871 597.424316 
z
" clip-path="url(#pef976044b6)" style="fill: #1f77b4; fill-opacity: 0.5"/>
   </g>
   <g id="patch_73">
    <path d="M 164.007684 597.6 
L 171.894676 597.6 
L 171.894676 596.059162 
L 164.007684 596.059162 
z
" clip-path="url(#pef976044b6)" style="fill: #1f77b4; fill-opacity: 0.5"/>
   </g>
   <g id="patch_74">
    <path d="M 173.286498 597.6 
L 181.173489 597.6 
L 181.173489 586.385002 
L 173.286498 586.385002 
z
" clip-path="url(#pef976044b6)" style="fill: #1f77b4; fill-opacity: 0.5"/>
   </g>
   <g id="patch_75">
    <path d="M 182.565311 597.6 
L 190.452303 597.6 
L 190.452303 527.127532 
L 182.565311 527.127532 
z
" clip-path="url(#pef976044b6)" style="fill: #1f77b4; fill-opacity: 0.5"/>
   </g>
   <g id="patch_76">
    <path d="M 191.844125 597.6 
L 199.731116 597.6 
L 199.731116 399.312841 
L 191.844125 399.312841 
z
" clip-path="url(#pef976044b6)" style="fill: #1f77b4; fill-opacity: 0.5"/>
   </g>
   <g id="patch_77">
    <path d="M 201.122938 597.6 
L 209.009929 597.6 
L 209.009929 431.563881 
L 201.122938 431.563881 
z
" clip-path="url(#pef976044b6)" style="fill: #1f77b4; fill-opacity: 0.5"/>
   </g>
   <g id="patch_78">
    <path d="M 210.401751 597.6 
L 218.288743 597.6 
L 218.288743 546.308808 
L 210.401751 546.308808 
z
" clip-path="url(#pef976044b6)" style="fill: #1f77b4; fill-opacity: 0.5"/>
   </g>
   <g id="patch_79">
    <path d="M 219.680565 597.6 
L 227.567556 597.6 
L 227.567556 588.33193 
L 219.680565 588.33193 
z
" clip-path="url(#pef976044b6)" style="fill: #1f77b4; fill-opacity: 0.5"/>
   </g>
   <g id="patch_80">
    <path d="M 228.959378 597.6 
L 236.846369 597.6 
L 236.846369 596.134044 
L 228.959378 596.134044 
z
" clip-path="url(#pef976044b6)" style="fill: #1f77b4; fill-opacity: 0.5"/>
   </g>
   <g id="patch_81">
    <path d="M 238.238191 597.6 
L 246.125183 597.6 
L 246.125183 597.386875 
L 238.238191 597.386875 
z
" clip-path="url(#pef976044b6)" style="fill: #1f77b4; fill-opacity: 0.5"/>
   </g>
   <g id="patch_82">
    <path d="M 247.517005 597.6 
L 255.403996 597.6 
L 255.403996 597.574079 
L 247.517005 597.574079 
z
" clip-path="url(#pef976044b6)" style="fill: #1f77b4; fill-opacity: 0.5"/>
   </g>
   <g id="patch_83">
    <path d="M 256.795818 597.6 
L 264.68281 597.6 
L 264.68281 597.59136 
L 256.795818 597.59136 
z
" clip-path="url(#pef976044b6)" style="fill: #1f77b4; fill-opacity: 0.5"/>
   </g>
   <g id="patch_84">
    <path d="M 266.074632 597.6 
L 273.961623 597.6 
L 273.961623 597.59136 
L 266.074632 597.59136 
z
" clip-path="url(#pef976044b6)" style="fill: #1f77b4; fill-opacity: 0.5"/>
   </g>
   <g id="patch_85">
    <path d="M 275.353445 597.6 
L 283.240436 597.6 
L 283.240436 597.6 
L 275.353445 597.6 
z
" clip-path="url(#pef976044b6)" style="fill: #1f77b4; fill-opacity: 0.5"/>
   </g>
   <g id="patch_86">
    <path d="M 284.632258 597.6 
L 292.51925 597.6 
L 292.51925 597.6 
L 284.632258 597.6 
z
" clip-path="url(#pef976044b6)" style="fill: #1f77b4; fill-opacity: 0.5"/>
   </g>
   <g id="patch_87">
    <path d="M 293.911072 597.6 
L 301.798063 597.6 
L 301.798063 597.6 
L 293.911072 597.6 
z
" clip-path="url(#pef976044b6)" style="fill: #1f77b4; fill-opacity: 0.5"/>
   </g>
   <g id="matplotlib.axis_5">
    <g id="xtick_13">
     <g id="line2d_31">
      <g>
       <use xlink:href="#medb85f9946" x="70.52364" y="597.6" style="stroke: #000000; stroke-width: 0.8"/>
      </g>
     </g>
     <g id="text_34">
      <!-- 0.0 -->
      <g transform="translate(62.572077 612.198437) scale(0.1 -0.1)">
       <use xlink:href="#DejaVuSans-30"/>
       <use xlink:href="#DejaVuSans-2e" x="63.623047"/>
       <use xlink:href="#DejaVuSans-30" x="95.410156"/>
      </g>
     </g>
    </g>
    <g id="xtick_14">
     <g id="line2d_32">
      <g>
       <use xlink:href="#medb85f9946" x="116.917706" y="597.6" style="stroke: #000000; stroke-width: 0.8"/>
      </g>
     </g>
     <g id="text_35">
      <!-- 0.2 -->
      <g transform="translate(108.966144 612.198437) scale(0.1 -0.1)">
       <use xlink:href="#DejaVuSans-30"/>
       <use xlink:href="#DejaVuSans-2e" x="63.623047"/>
       <use xlink:href="#DejaVuSans-32" x="95.410156"/>
      </g>
     </g>
    </g>
    <g id="xtick_15">
     <g id="line2d_33">
      <g>
       <use xlink:href="#medb85f9946" x="163.311773" y="597.6" style="stroke: #000000; stroke-width: 0.8"/>
      </g>
     </g>
     <g id="text_36">
      <!-- 0.4 -->
      <g transform="translate(155.360211 612.198437) scale(0.1 -0.1)">
       <use xlink:href="#DejaVuSans-30"/>
       <use xlink:href="#DejaVuSans-2e" x="63.623047"/>
       <use xlink:href="#DejaVuSans-34" x="95.410156"/>
      </g>
     </g>
    </g>
    <g id="xtick_16">
     <g id="line2d_34">
      <g>
       <use xlink:href="#medb85f9946" x="209.70584" y="597.6" style="stroke: #000000; stroke-width: 0.8"/>
      </g>
     </g>
     <g id="text_37">
      <!-- 0.6 -->
      <g transform="translate(201.754278 612.198437) scale(0.1 -0.1)">
       <use xlink:href="#DejaVuSans-30"/>
       <use xlink:href="#DejaVuSans-2e" x="63.623047"/>
       <use xlink:href="#DejaVuSans-36" x="95.410156"/>
      </g>
     </g>
    </g>
    <g id="xtick_17">
     <g id="line2d_35">
      <g>
       <use xlink:href="#medb85f9946" x="256.099907" y="597.6" style="stroke: #000000; stroke-width: 0.8"/>
      </g>
     </g>
     <g id="text_38">
      <!-- 0.8 -->
      <g transform="translate(248.148345 612.198437) scale(0.1 -0.1)">
       <use xlink:href="#DejaVuSans-30"/>
       <use xlink:href="#DejaVuSans-2e" x="63.623047"/>
       <use xlink:href="#DejaVuSans-38" x="95.410156"/>
      </g>
     </g>
    </g>
    <g id="xtick_18">
     <g id="line2d_36">
      <g>
       <use xlink:href="#medb85f9946" x="302.493974" y="597.6" style="stroke: #000000; stroke-width: 0.8"/>
      </g>
     </g>
     <g id="text_39">
      <!-- 1.0 -->
      <g transform="translate(294.542412 612.198437) scale(0.1 -0.1)">
       <use xlink:href="#DejaVuSans-31"/>
       <use xlink:href="#DejaVuSans-2e" x="63.623047"/>
       <use xlink:href="#DejaVuSans-30" x="95.410156"/>
      </g>
     </g>
    </g>
    <g id="text_40">
     <!-- D -->
     <g transform="translate(182.658807 625.876562) scale(0.1 -0.1)">
      <defs>
       <path id="DejaVuSans-44" d="M 1259 4147 
L 1259 519 
L 2022 519 
Q 2988 519 3436 956 
Q 3884 1394 3884 2338 
Q 3884 3275 3436 3711 
Q 2988 4147 2022 4147 
L 1259 4147 
z
M 628 4666 
L 1925 4666 
Q 3281 4666 3915 4102 
Q 4550 3538 4550 2338 
Q 4550 1131 3912 565 
Q 3275 0 1925 0 
L 628 0 
L 628 4666 
z
" transform="scale(0.015625)"/>
      </defs>
      <use xlink:href="#DejaVuSans-44"/>
     </g>
    </g>
   </g>
   <g id="matplotlib.axis_6">
    <g id="ytick_17">
     <g id="line2d_37">
      <g>
       <use xlink:href="#m2c27f9324c" x="59.690625" y="597.6" style="stroke: #000000; stroke-width: 0.8"/>
      </g>
     </g>
     <g id="text_41">
      <!-- 0 -->
      <g transform="translate(46.328125 601.399219) scale(0.1 -0.1)">
       <use xlink:href="#DejaVuSans-30"/>
      </g>
     </g>
    </g>
    <g id="ytick_18">
     <g id="line2d_38">
      <g>
       <use xlink:href="#m2c27f9324c" x="59.690625" y="568.799286" style="stroke: #000000; stroke-width: 0.8"/>
      </g>
     </g>
     <g id="text_42">
      <!-- 10000 -->
      <g transform="translate(20.878125 572.598504) scale(0.1 -0.1)">
       <use xlink:href="#DejaVuSans-31"/>
       <use xlink:href="#DejaVuSans-30" x="63.623047"/>
       <use xlink:href="#DejaVuSans-30" x="127.246094"/>
       <use xlink:href="#DejaVuSans-30" x="190.869141"/>
       <use xlink:href="#DejaVuSans-30" x="254.492188"/>
      </g>
     </g>
    </g>
    <g id="ytick_19">
     <g id="line2d_39">
      <g>
       <use xlink:href="#m2c27f9324c" x="59.690625" y="539.998571" style="stroke: #000000; stroke-width: 0.8"/>
      </g>
     </g>
     <g id="text_43">
      <!-- 20000 -->
      <g transform="translate(20.878125 543.79779) scale(0.1 -0.1)">
       <use xlink:href="#DejaVuSans-32"/>
       <use xlink:href="#DejaVuSans-30" x="63.623047"/>
       <use xlink:href="#DejaVuSans-30" x="127.246094"/>
       <use xlink:href="#DejaVuSans-30" x="190.869141"/>
       <use xlink:href="#DejaVuSans-30" x="254.492188"/>
      </g>
     </g>
    </g>
    <g id="ytick_20">
     <g id="line2d_40">
      <g>
       <use xlink:href="#m2c27f9324c" x="59.690625" y="511.197857" style="stroke: #000000; stroke-width: 0.8"/>
      </g>
     </g>
     <g id="text_44">
      <!-- 30000 -->
      <g transform="translate(20.878125 514.997075) scale(0.1 -0.1)">
       <use xlink:href="#DejaVuSans-33"/>
       <use xlink:href="#DejaVuSans-30" x="63.623047"/>
       <use xlink:href="#DejaVuSans-30" x="127.246094"/>
       <use xlink:href="#DejaVuSans-30" x="190.869141"/>
       <use xlink:href="#DejaVuSans-30" x="254.492188"/>
      </g>
     </g>
    </g>
    <g id="ytick_21">
     <g id="line2d_41">
      <g>
       <use xlink:href="#m2c27f9324c" x="59.690625" y="482.397142" style="stroke: #000000; stroke-width: 0.8"/>
      </g>
     </g>
     <g id="text_45">
      <!-- 40000 -->
      <g transform="translate(20.878125 486.196361) scale(0.1 -0.1)">
       <use xlink:href="#DejaVuSans-34"/>
       <use xlink:href="#DejaVuSans-30" x="63.623047"/>
       <use xlink:href="#DejaVuSans-30" x="127.246094"/>
       <use xlink:href="#DejaVuSans-30" x="190.869141"/>
       <use xlink:href="#DejaVuSans-30" x="254.492188"/>
      </g>
     </g>
    </g>
    <g id="ytick_22">
     <g id="line2d_42">
      <g>
       <use xlink:href="#m2c27f9324c" x="59.690625" y="453.596428" style="stroke: #000000; stroke-width: 0.8"/>
      </g>
     </g>
     <g id="text_46">
      <!-- 50000 -->
      <g transform="translate(20.878125 457.395646) scale(0.1 -0.1)">
       <use xlink:href="#DejaVuSans-35"/>
       <use xlink:href="#DejaVuSans-30" x="63.623047"/>
       <use xlink:href="#DejaVuSans-30" x="127.246094"/>
       <use xlink:href="#DejaVuSans-30" x="190.869141"/>
       <use xlink:href="#DejaVuSans-30" x="254.492188"/>
      </g>
     </g>
    </g>
    <g id="ytick_23">
     <g id="line2d_43">
      <g>
       <use xlink:href="#m2c27f9324c" x="59.690625" y="424.795713" style="stroke: #000000; stroke-width: 0.8"/>
      </g>
     </g>
     <g id="text_47">
      <!-- 60000 -->
      <g transform="translate(20.878125 428.594932) scale(0.1 -0.1)">
       <use xlink:href="#DejaVuSans-36"/>
       <use xlink:href="#DejaVuSans-30" x="63.623047"/>
       <use xlink:href="#DejaVuSans-30" x="127.246094"/>
       <use xlink:href="#DejaVuSans-30" x="190.869141"/>
       <use xlink:href="#DejaVuSans-30" x="254.492188"/>
      </g>
     </g>
    </g>
    <g id="ytick_24">
     <g id="line2d_44">
      <g>
       <use xlink:href="#m2c27f9324c" x="59.690625" y="395.994999" style="stroke: #000000; stroke-width: 0.8"/>
      </g>
     </g>
     <g id="text_48">
      <!-- 70000 -->
      <g transform="translate(20.878125 399.794217) scale(0.1 -0.1)">
       <use xlink:href="#DejaVuSans-37"/>
       <use xlink:href="#DejaVuSans-30" x="63.623047"/>
       <use xlink:href="#DejaVuSans-30" x="127.246094"/>
       <use xlink:href="#DejaVuSans-30" x="190.869141"/>
       <use xlink:href="#DejaVuSans-30" x="254.492188"/>
      </g>
     </g>
    </g>
    <g id="ytick_25">
     <g id="line2d_45">
      <g>
       <use xlink:href="#m2c27f9324c" x="59.690625" y="367.194284" style="stroke: #000000; stroke-width: 0.8"/>
      </g>
     </g>
     <g id="text_49">
      <!-- 80000 -->
      <g transform="translate(20.878125 370.993503) scale(0.1 -0.1)">
       <use xlink:href="#DejaVuSans-38"/>
       <use xlink:href="#DejaVuSans-30" x="63.623047"/>
       <use xlink:href="#DejaVuSans-30" x="127.246094"/>
       <use xlink:href="#DejaVuSans-30" x="190.869141"/>
       <use xlink:href="#DejaVuSans-30" x="254.492188"/>
      </g>
     </g>
    </g>
    <g id="text_50">
     <!-- Count -->
     <g transform="translate(14.798438 489.248437) rotate(-90) scale(0.1 -0.1)">
      <use xlink:href="#DejaVuSans-43"/>
      <use xlink:href="#DejaVuSans-6f" x="69.824219"/>
      <use xlink:href="#DejaVuSans-75" x="131.005859"/>
      <use xlink:href="#DejaVuSans-6e" x="194.384766"/>
      <use xlink:href="#DejaVuSans-74" x="257.763672"/>
     </g>
    </g>
   </g>
   <g id="line2d_46">
    <path d="M 139.186859 597.580085 
L 151.223671 597.506776 
L 152.561095 597.378745 
L 156.573365 597.516424 
L 158.579501 597.453821 
L 160.585636 597.28537 
L 163.260483 597.239605 
L 165.266619 596.797766 
L 166.604042 596.497266 
L 167.941466 596.348681 
L 170.616313 595.345449 
L 171.953737 594.432465 
L 173.959872 592.877168 
L 175.297296 591.475794 
L 176.634719 589.326615 
L 177.303431 587.996216 
L 178.640855 584.459161 
L 179.309567 582.449661 
L 179.978278 580.070741 
L 180.64699 577.198249 
L 183.321838 562.962611 
L 183.990549 557.846805 
L 185.327973 543.463595 
L 185.996685 535.033022 
L 187.334108 514.17606 
L 188.00282 508.079366 
L 188.671532 504.863343 
L 189.340244 498.645957 
L 190.008956 487.683981 
L 192.015091 443.506543 
L 192.683803 434.537382 
L 193.352515 429.089453 
L 194.021226 421.278311 
L 194.689938 410.757612 
L 196.027362 393.411631 
L 196.696074 382.829483 
L 197.364785 376.865592 
L 198.033497 374.069576 
L 198.702209 367.661809 
L 199.370921 362.933333 
L 200.039633 368.375893 
L 200.708344 379.466681 
L 201.377056 386.936733 
L 203.383192 396.382885 
L 204.051903 401.953515 
L 204.720615 413.340313 
L 206.726751 465.435695 
L 207.395462 473.979103 
L 208.732886 486.791624 
L 210.07031 503.856294 
L 211.407733 521.263692 
L 212.745157 534.585236 
L 214.751292 554.363033 
L 215.420004 558.785103 
L 220.100987 580.589461 
L 222.107122 586.564433 
L 223.444546 589.274326 
L 224.113257 590.5995 
L 224.781969 591.593134 
L 226.119393 592.724379 
L 227.456816 593.787762 
L 228.125528 594.375968 
L 228.79424 594.803375 
L 229.462952 594.95253 
L 230.131664 594.986026 
L 230.800375 595.218976 
L 232.137799 596.043594 
L 234.143934 596.72653 
L 235.481358 596.991953 
L 238.156205 597.13407 
L 242.837188 597.421777 
L 256.211424 597.585671 
L 272.260507 597.586928 
L 272.260507 597.586928 
" clip-path="url(#pef976044b6)" style="fill: none; stroke: #1f77b4; stroke-width: 1.5; stroke-linecap: square"/>
   </g>
   <g id="patch_88">
    <path d="M 59.690625 597.6 
L 59.690625 351.2 
" style="fill: none; stroke: #000000; stroke-width: 0.8; stroke-linejoin: miter; stroke-linecap: square"/>
   </g>
   <g id="patch_89">
    <path d="M 313.326989 597.6 
L 313.326989 351.2 
" style="fill: none; stroke: #000000; stroke-width: 0.8; stroke-linejoin: miter; stroke-linecap: square"/>
   </g>
   <g id="patch_90">
    <path d="M 59.690625 597.6 
L 313.326989 597.6 
" style="fill: none; stroke: #000000; stroke-width: 0.8; stroke-linejoin: miter; stroke-linecap: square"/>
   </g>
   <g id="patch_91">
    <path d="M 59.690625 351.2 
L 313.326989 351.2 
" style="fill: none; stroke: #000000; stroke-width: 0.8; stroke-linejoin: miter; stroke-linecap: square"/>
   </g>
   <g id="text_51">
    <!-- Dominance -->
    <g transform="translate(152.433494 345.2) scale(0.12 -0.12)">
     <defs>
      <path id="DejaVuSans-6d" d="M 3328 2828 
Q 3544 3216 3844 3400 
Q 4144 3584 4550 3584 
Q 5097 3584 5394 3201 
Q 5691 2819 5691 2113 
L 5691 0 
L 5113 0 
L 5113 2094 
Q 5113 2597 4934 2840 
Q 4756 3084 4391 3084 
Q 3944 3084 3684 2787 
Q 3425 2491 3425 1978 
L 3425 0 
L 2847 0 
L 2847 2094 
Q 2847 2600 2669 2842 
Q 2491 3084 2119 3084 
Q 1678 3084 1418 2786 
Q 1159 2488 1159 1978 
L 1159 0 
L 581 0 
L 581 3500 
L 1159 3500 
L 1159 2956 
Q 1356 3278 1631 3431 
Q 1906 3584 2284 3584 
Q 2666 3584 2933 3390 
Q 3200 3197 3328 2828 
z
" transform="scale(0.015625)"/>
      <path id="DejaVuSans-69" d="M 603 3500 
L 1178 3500 
L 1178 0 
L 603 0 
L 603 3500 
z
M 603 4863 
L 1178 4863 
L 1178 4134 
L 603 4134 
L 603 4863 
z
" transform="scale(0.015625)"/>
     </defs>
     <use xlink:href="#DejaVuSans-44"/>
     <use xlink:href="#DejaVuSans-6f" x="77.001953"/>
     <use xlink:href="#DejaVuSans-6d" x="138.183594"/>
     <use xlink:href="#DejaVuSans-69" x="235.595703"/>
     <use xlink:href="#DejaVuSans-6e" x="263.378906"/>
     <use xlink:href="#DejaVuSans-61" x="326.757812"/>
     <use xlink:href="#DejaVuSans-6e" x="388.037109"/>
     <use xlink:href="#DejaVuSans-63" x="451.416016"/>
     <use xlink:href="#DejaVuSans-65" x="506.396484"/>
    </g>
   </g>
  </g>
  <g id="axes_4">
   <g id="patch_92">
    <path d="M 364.054261 597.6 
L 617.690625 597.6 
L 617.690625 351.2 
L 364.054261 351.2 
z
" style="fill: #ffffff"/>
   </g>
   <g id="patch_93">
    <path d="M 491.218311 597.6 
L 495.138146 597.6 
L 495.138146 587.191233 
L 491.218311 587.191233 
z
" clip-path="url(#p25dfcb31fd)" style="fill: #1f77b4; fill-opacity: 0.5"/>
   </g>
   <g id="patch_94">
    <path d="M 495.829881 597.6 
L 499.749716 597.6 
L 499.749716 592.715363 
L 495.829881 592.715363 
z
" clip-path="url(#p25dfcb31fd)" style="fill: #1f77b4; fill-opacity: 0.5"/>
   </g>
   <g id="patch_95">
    <path d="M 500.441451 597.6 
L 504.361286 597.6 
L 504.361286 586.715015 
L 500.441451 586.715015 
z
" clip-path="url(#p25dfcb31fd)" style="fill: #1f77b4; fill-opacity: 0.5"/>
   </g>
   <g id="patch_96">
    <path d="M 505.053022 597.6 
L 508.972856 597.6 
L 508.972856 588.157276 
L 505.053022 588.157276 
z
" clip-path="url(#p25dfcb31fd)" style="fill: #1f77b4; fill-opacity: 0.5"/>
   </g>
   <g id="patch_97">
    <path d="M 509.664592 597.6 
L 513.584427 597.6 
L 513.584427 589.014468 
L 509.664592 589.014468 
z
" clip-path="url(#p25dfcb31fd)" style="fill: #1f77b4; fill-opacity: 0.5"/>
   </g>
   <g id="patch_98">
    <path d="M 514.276162 597.6 
L 518.195997 597.6 
L 518.195997 573.734671 
L 514.276162 573.734671 
z
" clip-path="url(#p25dfcb31fd)" style="fill: #1f77b4; fill-opacity: 0.5"/>
   </g>
   <g id="patch_99">
    <path d="M 518.887732 597.6 
L 522.807567 597.6 
L 522.807567 573.993189 
L 518.887732 573.993189 
z
" clip-path="url(#p25dfcb31fd)" style="fill: #1f77b4; fill-opacity: 0.5"/>
   </g>
   <g id="patch_100">
    <path d="M 523.499303 597.6 
L 527.419137 597.6 
L 527.419137 573.789096 
L 523.499303 573.789096 
z
" clip-path="url(#p25dfcb31fd)" style="fill: #1f77b4; fill-opacity: 0.5"/>
   </g>
   <g id="patch_101">
    <path d="M 528.110873 597.6 
L 532.030708 597.6 
L 532.030708 553.189262 
L 528.110873 553.189262 
z
" clip-path="url(#p25dfcb31fd)" style="fill: #1f77b4; fill-opacity: 0.5"/>
   </g>
   <g id="patch_102">
    <path d="M 532.722443 597.6 
L 536.642278 597.6 
L 536.642278 548.916905 
L 532.722443 548.916905 
z
" clip-path="url(#p25dfcb31fd)" style="fill: #1f77b4; fill-opacity: 0.5"/>
   </g>
   <g id="patch_103">
    <path d="M 537.334013 597.6 
L 541.253848 597.6 
L 541.253848 514.152985 
L 537.334013 514.152985 
z
" clip-path="url(#p25dfcb31fd)" style="fill: #1f77b4; fill-opacity: 0.5"/>
   </g>
   <g id="patch_104">
    <path d="M 541.945584 597.6 
L 545.865418 597.6 
L 545.865418 511.49977 
L 541.945584 511.49977 
z
" clip-path="url(#p25dfcb31fd)" style="fill: #1f77b4; fill-opacity: 0.5"/>
   </g>
   <g id="patch_105">
    <path d="M 546.557154 597.6 
L 550.476989 597.6 
L 550.476989 489.294401 
L 546.557154 489.294401 
z
" clip-path="url(#p25dfcb31fd)" style="fill: #1f77b4; fill-opacity: 0.5"/>
   </g>
   <g id="patch_106">
    <path d="M 551.168724 597.6 
L 555.088559 597.6 
L 555.088559 453.945413 
L 551.168724 453.945413 
z
" clip-path="url(#p25dfcb31fd)" style="fill: #1f77b4; fill-opacity: 0.5"/>
   </g>
   <g id="patch_107">
    <path d="M 555.780294 597.6 
L 559.700129 597.6 
L 559.700129 468.762598 
L 555.780294 468.762598 
z
" clip-path="url(#p25dfcb31fd)" style="fill: #1f77b4; fill-opacity: 0.5"/>
   </g>
   <g id="patch_108">
    <path d="M 560.391865 597.6 
L 564.311699 597.6 
L 564.311699 377.042995 
L 560.391865 377.042995 
z
" clip-path="url(#p25dfcb31fd)" style="fill: #1f77b4; fill-opacity: 0.5"/>
   </g>
   <g id="patch_109">
    <path d="M 565.003435 597.6 
L 568.92327 597.6 
L 568.92327 388.594685 
L 565.003435 388.594685 
z
" clip-path="url(#p25dfcb31fd)" style="fill: #1f77b4; fill-opacity: 0.5"/>
   </g>
   <g id="patch_110">
    <path d="M 569.615005 597.6 
L 573.53484 597.6 
L 573.53484 362.933333 
L 569.615005 362.933333 
z
" clip-path="url(#p25dfcb31fd)" style="fill: #1f77b4; fill-opacity: 0.5"/>
   </g>
   <g id="patch_111">
    <path d="M 574.226575 597.6 
L 578.14641 597.6 
L 578.14641 397.016942 
L 574.226575 397.016942 
z
" clip-path="url(#p25dfcb31fd)" style="fill: #1f77b4; fill-opacity: 0.5"/>
   </g>
   <g id="patch_112">
    <path d="M 578.838146 597.6 
L 582.75798 597.6 
L 582.75798 409.398612 
L 578.838146 409.398612 
z
" clip-path="url(#p25dfcb31fd)" style="fill: #1f77b4; fill-opacity: 0.5"/>
   </g>
   <g id="patch_113">
    <path d="M 583.449716 597.6 
L 587.369551 597.6 
L 587.369551 418.256269 
L 583.449716 418.256269 
z
" clip-path="url(#p25dfcb31fd)" style="fill: #1f77b4; fill-opacity: 0.5"/>
   </g>
   <g id="patch_114">
    <path d="M 588.061286 597.6 
L 591.981121 597.6 
L 591.981121 453.319526 
L 588.061286 453.319526 
z
" clip-path="url(#p25dfcb31fd)" style="fill: #1f77b4; fill-opacity: 0.5"/>
   </g>
   <g id="patch_115">
    <path d="M 592.672856 597.6 
L 596.592691 597.6 
L 596.592691 509.486048 
L 592.672856 509.486048 
z
" clip-path="url(#p25dfcb31fd)" style="fill: #1f77b4; fill-opacity: 0.5"/>
   </g>
   <g id="patch_116">
    <path d="M 597.284427 597.6 
L 601.204261 597.6 
L 601.204261 555.815264 
L 597.284427 555.815264 
z
" clip-path="url(#p25dfcb31fd)" style="fill: #1f77b4; fill-opacity: 0.5"/>
   </g>
   <g id="patch_117">
    <path d="M 601.895997 597.6 
L 605.815832 597.6 
L 605.815832 464.163692 
L 601.895997 464.163692 
z
" clip-path="url(#p25dfcb31fd)" style="fill: #1f77b4; fill-opacity: 0.5"/>
   </g>
   <g id="matplotlib.axis_7">
    <g id="xtick_19">
     <g id="line2d_47">
      <g>
       <use xlink:href="#medb85f9946" x="375.583187" y="597.6" style="stroke: #000000; stroke-width: 0.8"/>
      </g>
     </g>
     <g id="text_52">
      <!-- 1.0 -->
      <g transform="translate(363.441781 612.198437) scale(0.1 -0.1)">
       <defs>
        <path id="DejaVuSans-2212" d="M 678 2272 
L 4684 2272 
L 4684 1741 
L 678 1741 
L 678 2272 
z
" transform="scale(0.015625)"/>
       </defs>
       <use xlink:href="#DejaVuSans-2212"/>
       <use xlink:href="#DejaVuSans-31" x="83.789062"/>
       <use xlink:href="#DejaVuSans-2e" x="147.412109"/>
       <use xlink:href="#DejaVuSans-30" x="179.199219"/>
      </g>
     </g>
    </g>
    <g id="xtick_20">
     <g id="line2d_48">
      <g>
       <use xlink:href="#medb85f9946" x="421.698889" y="597.6" style="stroke: #000000; stroke-width: 0.8"/>
      </g>
     </g>
     <g id="text_53">
      <!-- 0.6 -->
      <g transform="translate(409.557483 612.198437) scale(0.1 -0.1)">
       <use xlink:href="#DejaVuSans-2212"/>
       <use xlink:href="#DejaVuSans-30" x="83.789062"/>
       <use xlink:href="#DejaVuSans-2e" x="147.412109"/>
       <use xlink:href="#DejaVuSans-36" x="179.199219"/>
      </g>
     </g>
    </g>
    <g id="xtick_21">
     <g id="line2d_49">
      <g>
       <use xlink:href="#medb85f9946" x="467.814592" y="597.6" style="stroke: #000000; stroke-width: 0.8"/>
      </g>
     </g>
     <g id="text_54">
      <!-- 0.2 -->
      <g transform="translate(455.673186 612.198437) scale(0.1 -0.1)">
       <use xlink:href="#DejaVuSans-2212"/>
       <use xlink:href="#DejaVuSans-30" x="83.789062"/>
       <use xlink:href="#DejaVuSans-2e" x="147.412109"/>
       <use xlink:href="#DejaVuSans-32" x="179.199219"/>
      </g>
     </g>
    </g>
    <g id="xtick_22">
     <g id="line2d_50">
      <g>
       <use xlink:href="#medb85f9946" x="513.930294" y="597.6" style="stroke: #000000; stroke-width: 0.8"/>
      </g>
     </g>
     <g id="text_55">
      <!-- 0.2 -->
      <g transform="translate(505.978732 612.198437) scale(0.1 -0.1)">
       <use xlink:href="#DejaVuSans-30"/>
       <use xlink:href="#DejaVuSans-2e" x="63.623047"/>
       <use xlink:href="#DejaVuSans-32" x="95.410156"/>
      </g>
     </g>
    </g>
    <g id="xtick_23">
     <g id="line2d_51">
      <g>
       <use xlink:href="#medb85f9946" x="560.045997" y="597.6" style="stroke: #000000; stroke-width: 0.8"/>
      </g>
     </g>
     <g id="text_56">
      <!-- 0.6 -->
      <g transform="translate(552.094434 612.198437) scale(0.1 -0.1)">
       <use xlink:href="#DejaVuSans-30"/>
       <use xlink:href="#DejaVuSans-2e" x="63.623047"/>
       <use xlink:href="#DejaVuSans-36" x="95.410156"/>
      </g>
     </g>
    </g>
    <g id="xtick_24">
     <g id="line2d_52">
      <g>
       <use xlink:href="#medb85f9946" x="606.161699" y="597.6" style="stroke: #000000; stroke-width: 0.8"/>
      </g>
     </g>
     <g id="text_57">
      <!-- 1.0 -->
      <g transform="translate(598.210137 612.198437) scale(0.1 -0.1)">
       <use xlink:href="#DejaVuSans-31"/>
       <use xlink:href="#DejaVuSans-2e" x="63.623047"/>
       <use xlink:href="#DejaVuSans-30" x="95.410156"/>
      </g>
     </g>
    </g>
    <g id="text_58">
     <!-- StR -->
     <g transform="translate(482.263849 625.876562) scale(0.1 -0.1)">
      <defs>
       <path id="DejaVuSans-53" d="M 3425 4513 
L 3425 3897 
Q 3066 4069 2747 4153 
Q 2428 4238 2131 4238 
Q 1616 4238 1336 4038 
Q 1056 3838 1056 3469 
Q 1056 3159 1242 3001 
Q 1428 2844 1947 2747 
L 2328 2669 
Q 3034 2534 3370 2195 
Q 3706 1856 3706 1288 
Q 3706 609 3251 259 
Q 2797 -91 1919 -91 
Q 1588 -91 1214 -16 
Q 841 59 441 206 
L 441 856 
Q 825 641 1194 531 
Q 1563 422 1919 422 
Q 2459 422 2753 634 
Q 3047 847 3047 1241 
Q 3047 1584 2836 1778 
Q 2625 1972 2144 2069 
L 1759 2144 
Q 1053 2284 737 2584 
Q 422 2884 422 3419 
Q 422 4038 858 4394 
Q 1294 4750 2059 4750 
Q 2388 4750 2728 4690 
Q 3069 4631 3425 4513 
z
" transform="scale(0.015625)"/>
       <path id="DejaVuSans-52" d="M 2841 2188 
Q 3044 2119 3236 1894 
Q 3428 1669 3622 1275 
L 4263 0 
L 3584 0 
L 2988 1197 
Q 2756 1666 2539 1819 
Q 2322 1972 1947 1972 
L 1259 1972 
L 1259 0 
L 628 0 
L 628 4666 
L 2053 4666 
Q 2853 4666 3247 4331 
Q 3641 3997 3641 3322 
Q 3641 2881 3436 2590 
Q 3231 2300 2841 2188 
z
M 1259 4147 
L 1259 2491 
L 2053 2491 
Q 2509 2491 2742 2702 
Q 2975 2913 2975 3322 
Q 2975 3731 2742 3939 
Q 2509 4147 2053 4147 
L 1259 4147 
z
" transform="scale(0.015625)"/>
      </defs>
      <use xlink:href="#DejaVuSans-53"/>
      <use xlink:href="#DejaVuSans-74" x="63.476562"/>
      <use xlink:href="#DejaVuSans-52" x="102.685547"/>
     </g>
    </g>
   </g>
   <g id="matplotlib.axis_8">
    <g id="ytick_26">
     <g id="line2d_53">
      <g>
       <use xlink:href="#m2c27f9324c" x="364.054261" y="597.6" style="stroke: #000000; stroke-width: 0.8"/>
      </g>
     </g>
     <g id="text_59">
      <!-- 0 -->
      <g transform="translate(350.691761 601.399219) scale(0.1 -0.1)">
       <use xlink:href="#DejaVuSans-30"/>
      </g>
     </g>
    </g>
    <g id="ytick_27">
     <g id="line2d_54">
      <g>
       <use xlink:href="#m2c27f9324c" x="364.054261" y="563.584422" style="stroke: #000000; stroke-width: 0.8"/>
      </g>
     </g>
     <g id="text_60">
      <!-- 2500 -->
      <g transform="translate(331.604261 567.383641) scale(0.1 -0.1)">
       <use xlink:href="#DejaVuSans-32"/>
       <use xlink:href="#DejaVuSans-35" x="63.623047"/>
       <use xlink:href="#DejaVuSans-30" x="127.246094"/>
       <use xlink:href="#DejaVuSans-30" x="190.869141"/>
      </g>
     </g>
    </g>
    <g id="ytick_28">
     <g id="line2d_55">
      <g>
       <use xlink:href="#m2c27f9324c" x="364.054261" y="529.568845" style="stroke: #000000; stroke-width: 0.8"/>
      </g>
     </g>
     <g id="text_61">
      <!-- 5000 -->
      <g transform="translate(331.604261 533.368064) scale(0.1 -0.1)">
       <use xlink:href="#DejaVuSans-35"/>
       <use xlink:href="#DejaVuSans-30" x="63.623047"/>
       <use xlink:href="#DejaVuSans-30" x="127.246094"/>
       <use xlink:href="#DejaVuSans-30" x="190.869141"/>
      </g>
     </g>
    </g>
    <g id="ytick_29">
     <g id="line2d_56">
      <g>
       <use xlink:href="#m2c27f9324c" x="364.054261" y="495.553267" style="stroke: #000000; stroke-width: 0.8"/>
      </g>
     </g>
     <g id="text_62">
      <!-- 7500 -->
      <g transform="translate(331.604261 499.352486) scale(0.1 -0.1)">
       <use xlink:href="#DejaVuSans-37"/>
       <use xlink:href="#DejaVuSans-35" x="63.623047"/>
       <use xlink:href="#DejaVuSans-30" x="127.246094"/>
       <use xlink:href="#DejaVuSans-30" x="190.869141"/>
      </g>
     </g>
    </g>
    <g id="ytick_30">
     <g id="line2d_57">
      <g>
       <use xlink:href="#m2c27f9324c" x="364.054261" y="461.53769" style="stroke: #000000; stroke-width: 0.8"/>
      </g>
     </g>
     <g id="text_63">
      <!-- 10000 -->
      <g transform="translate(325.241761 465.336908) scale(0.1 -0.1)">
       <use xlink:href="#DejaVuSans-31"/>
       <use xlink:href="#DejaVuSans-30" x="63.623047"/>
       <use xlink:href="#DejaVuSans-30" x="127.246094"/>
       <use xlink:href="#DejaVuSans-30" x="190.869141"/>
       <use xlink:href="#DejaVuSans-30" x="254.492188"/>
      </g>
     </g>
    </g>
    <g id="ytick_31">
     <g id="line2d_58">
      <g>
       <use xlink:href="#m2c27f9324c" x="364.054261" y="427.522112" style="stroke: #000000; stroke-width: 0.8"/>
      </g>
     </g>
     <g id="text_64">
      <!-- 12500 -->
      <g transform="translate(325.241761 431.321331) scale(0.1 -0.1)">
       <use xlink:href="#DejaVuSans-31"/>
       <use xlink:href="#DejaVuSans-32" x="63.623047"/>
       <use xlink:href="#DejaVuSans-35" x="127.246094"/>
       <use xlink:href="#DejaVuSans-30" x="190.869141"/>
       <use xlink:href="#DejaVuSans-30" x="254.492188"/>
      </g>
     </g>
    </g>
    <g id="ytick_32">
     <g id="line2d_59">
      <g>
       <use xlink:href="#m2c27f9324c" x="364.054261" y="393.506534" style="stroke: #000000; stroke-width: 0.8"/>
      </g>
     </g>
     <g id="text_65">
      <!-- 15000 -->
      <g transform="translate(325.241761 397.305753) scale(0.1 -0.1)">
       <use xlink:href="#DejaVuSans-31"/>
       <use xlink:href="#DejaVuSans-35" x="63.623047"/>
       <use xlink:href="#DejaVuSans-30" x="127.246094"/>
       <use xlink:href="#DejaVuSans-30" x="190.869141"/>
       <use xlink:href="#DejaVuSans-30" x="254.492188"/>
      </g>
     </g>
    </g>
    <g id="ytick_33">
     <g id="line2d_60">
      <g>
       <use xlink:href="#m2c27f9324c" x="364.054261" y="359.490957" style="stroke: #000000; stroke-width: 0.8"/>
      </g>
     </g>
     <g id="text_66">
      <!-- 17500 -->
      <g transform="translate(325.241761 363.290176) scale(0.1 -0.1)">
       <use xlink:href="#DejaVuSans-31"/>
       <use xlink:href="#DejaVuSans-37" x="63.623047"/>
       <use xlink:href="#DejaVuSans-35" x="127.246094"/>
       <use xlink:href="#DejaVuSans-30" x="190.869141"/>
       <use xlink:href="#DejaVuSans-30" x="254.492188"/>
      </g>
     </g>
    </g>
   </g>
   <g id="line2d_61">
    <path d="M 375.583187 597.282911 
L 386.011361 597.599999 
L 430.041429 597.511927 
L 433.517487 597.343827 
L 439.310917 597.532003 
L 448.580404 597.312297 
L 452.056462 596.390273 
L 453.215148 596.437609 
L 456.691206 597.317848 
L 459.008578 597.408741 
L 463.643322 597.278678 
L 465.960694 596.861655 
L 468.278066 596.341048 
L 472.91281 595.771684 
L 476.388868 596.252193 
L 481.023612 596.179386 
L 483.340984 596.197499 
L 484.49967 596.102015 
L 485.658356 595.771611 
L 486.817042 594.869138 
L 487.975728 593.041024 
L 489.134414 590.544049 
L 490.2931 588.664445 
L 491.451786 588.737513 
L 493.769158 592.406854 
L 494.927844 593.255631 
L 496.08653 593.232932 
L 498.403902 592.554286 
L 499.562588 591.711472 
L 500.721274 590.190956 
L 501.87996 588.390999 
L 503.038646 587.143467 
L 504.197332 586.868086 
L 506.514704 587.294749 
L 508.832076 587.353008 
L 509.990762 586.92413 
L 511.149448 585.289918 
L 513.46682 579.432355 
L 514.625506 577.759975 
L 515.784192 577.678859 
L 516.942878 578.190991 
L 518.101564 578.158972 
L 519.26025 577.224752 
L 522.736308 572.608049 
L 525.05368 571.277442 
L 526.212366 568.879499 
L 527.371052 563.602292 
L 528.529738 557.418128 
L 529.688424 553.984209 
L 530.84711 553.917095 
L 532.005796 553.96888 
L 533.164482 551.445086 
L 534.323168 546.586332 
L 536.64054 534.170841 
L 538.957912 521.349114 
L 540.116598 516.548993 
L 541.275284 513.774586 
L 542.43397 512.822387 
L 543.592656 512.445175 
L 544.751342 510.521331 
L 545.910028 504.898632 
L 548.2274 486.329939 
L 549.386086 480.160231 
L 550.544772 476.100677 
L 551.703458 470.944987 
L 554.02083 457.387399 
L 556.338202 446.376088 
L 557.496888 438.582272 
L 559.81426 418.861341 
L 560.972946 412.607382 
L 563.290318 405.10846 
L 564.449004 399.779426 
L 567.925062 379.313177 
L 569.083748 376.720242 
L 570.242434 376.112557 
L 571.40112 375.291556 
L 572.559806 374.732628 
L 573.718492 376.995089 
L 574.877178 382.878164 
L 576.035864 390.157496 
L 577.19455 396.28231 
L 578.353236 400.153 
L 579.511922 401.741105 
L 580.670608 402.393049 
L 581.829294 404.679057 
L 582.98798 410.115664 
L 586.464038 432.08877 
L 587.622724 438.764976 
L 588.78141 446.936976 
L 589.940095 458.002857 
L 593.416153 498.072514 
L 596.892211 532.141959 
L 599.209583 556.09295 
L 600.368269 565.214403 
L 601.526955 568.023294 
L 602.685641 557.637422 
L 603.844327 530.031571 
L 605.003013 496.129697 
L 606.161699 480.899217 
L 606.161699 480.899217 
" clip-path="url(#p25dfcb31fd)" style="fill: none; stroke: #1f77b4; stroke-width: 1.5; stroke-linecap: square"/>
   </g>
   <g id="patch_118">
    <path d="M 364.054261 597.6 
L 364.054261 351.2 
" style="fill: none; stroke: #000000; stroke-width: 0.8; stroke-linejoin: miter; stroke-linecap: square"/>
   </g>
   <g id="patch_119">
    <path d="M 617.690625 597.6 
L 617.690625 351.2 
" style="fill: none; stroke: #000000; stroke-width: 0.8; stroke-linejoin: miter; stroke-linecap: square"/>
   </g>
   <g id="patch_120">
    <path d="M 364.054261 597.6 
L 617.690625 597.6 
" style="fill: none; stroke: #000000; stroke-width: 0.8; stroke-linejoin: miter; stroke-linecap: square"/>
   </g>
   <g id="patch_121">
    <path d="M 364.054261 351.2 
L 617.690625 351.2 
" style="fill: none; stroke: #000000; stroke-width: 0.8; stroke-linejoin: miter; stroke-linecap: square"/>
   </g>
   <g id="text_67">
    <!-- Sentiment Ratio -->
    <g transform="translate(442.550881 345.2) scale(0.12 -0.12)">
     <defs>
      <path id="DejaVuSans-20" transform="scale(0.015625)"/>
     </defs>
     <use xlink:href="#DejaVuSans-53"/>
     <use xlink:href="#DejaVuSans-65" x="63.476562"/>
     <use xlink:href="#DejaVuSans-6e" x="125"/>
     <use xlink:href="#DejaVuSans-74" x="188.378906"/>
     <use xlink:href="#DejaVuSans-69" x="227.587891"/>
     <use xlink:href="#DejaVuSans-6d" x="255.371094"/>
     <use xlink:href="#DejaVuSans-65" x="352.783203"/>
     <use xlink:href="#DejaVuSans-6e" x="414.306641"/>
     <use xlink:href="#DejaVuSans-74" x="477.685547"/>
     <use xlink:href="#DejaVuSans-20" x="516.894531"/>
     <use xlink:href="#DejaVuSans-52" x="548.681641"/>
     <use xlink:href="#DejaVuSans-61" x="615.914062"/>
     <use xlink:href="#DejaVuSans-74" x="677.193359"/>
     <use xlink:href="#DejaVuSans-69" x="716.402344"/>
     <use xlink:href="#DejaVuSans-6f" x="744.185547"/>
    </g>
   </g>
  </g>
  <g id="text_68">
   <!-- VAD &amp; Sentiment Ratio -->
   <g transform="translate(260.43 16.318125) scale(0.12 -0.12)">
    <defs>
     <path id="DejaVuSans-26" d="M 1556 2509 
Q 1272 2256 1139 2004 
Q 1006 1753 1006 1478 
Q 1006 1022 1337 719 
Q 1669 416 2169 416 
Q 2466 416 2725 514 
Q 2984 613 3213 813 
L 1556 2509 
z
M 1997 2859 
L 3584 1234 
Q 3769 1513 3872 1830 
Q 3975 2147 3994 2503 
L 4575 2503 
Q 4538 2091 4375 1687 
Q 4213 1284 3922 891 
L 4794 0 
L 4006 0 
L 3559 459 
Q 3234 181 2878 45 
Q 2522 -91 2113 -91 
Q 1359 -91 881 339 
Q 403 769 403 1441 
Q 403 1841 612 2192 
Q 822 2544 1241 2853 
Q 1091 3050 1012 3245 
Q 934 3441 934 3628 
Q 934 4134 1281 4442 
Q 1628 4750 2203 4750 
Q 2463 4750 2720 4694 
Q 2978 4638 3244 4525 
L 3244 3956 
Q 2972 4103 2725 4179 
Q 2478 4256 2266 4256 
Q 1938 4256 1733 4082 
Q 1528 3909 1528 3634 
Q 1528 3475 1620 3314 
Q 1713 3153 1997 2859 
z
" transform="scale(0.015625)"/>
    </defs>
    <use xlink:href="#DejaVuSans-56"/>
    <use xlink:href="#DejaVuSans-41" x="62.033203"/>
    <use xlink:href="#DejaVuSans-44" x="130.441406"/>
    <use xlink:href="#DejaVuSans-20" x="207.443359"/>
    <use xlink:href="#DejaVuSans-26" x="239.230469"/>
    <use xlink:href="#DejaVuSans-20" x="317.208984"/>
    <use xlink:href="#DejaVuSans-53" x="348.996094"/>
    <use xlink:href="#DejaVuSans-65" x="412.472656"/>
    <use xlink:href="#DejaVuSans-6e" x="473.996094"/>
    <use xlink:href="#DejaVuSans-74" x="537.375"/>
    <use xlink:href="#DejaVuSans-69" x="576.583984"/>
    <use xlink:href="#DejaVuSans-6d" x="604.367188"/>
    <use xlink:href="#DejaVuSans-65" x="701.779297"/>
    <use xlink:href="#DejaVuSans-6e" x="763.302734"/>
    <use xlink:href="#DejaVuSans-74" x="826.681641"/>
    <use xlink:href="#DejaVuSans-20" x="865.890625"/>
    <use xlink:href="#DejaVuSans-52" x="897.677734"/>
    <use xlink:href="#DejaVuSans-61" x="964.910156"/>
    <use xlink:href="#DejaVuSans-74" x="1026.189453"/>
    <use xlink:href="#DejaVuSans-69" x="1065.398438"/>
    <use xlink:href="#DejaVuSans-6f" x="1093.181641"/>
   </g>
  </g>
 </g>
 <defs>
  <clipPath id="pa0f8f0849f">
   <rect x="59.690625" y="43.2" width="253.636364" height="246.4"/>
  </clipPath>
  <clipPath id="p84890ddd1e">
   <rect x="364.054261" y="43.2" width="253.636364" height="246.4"/>
  </clipPath>
  <clipPath id="pef976044b6">
   <rect x="59.690625" y="351.2" width="253.636364" height="246.4"/>
  </clipPath>
  <clipPath id="p25dfcb31fd">
   <rect x="364.054261" y="351.2" width="253.636364" height="246.4"/>
  </clipPath>
 </defs>
</svg>
